<?xml version="1.0" encoding="UTF-8" standalone="no"?>
<svg
   xmlns:dc="http://purl.org/dc/elements/1.1/"
   xmlns:cc="http://creativecommons.org/ns#"
   xmlns:rdf="http://www.w3.org/1999/02/22-rdf-syntax-ns#"
   xmlns:svg="http://www.w3.org/2000/svg"
   xmlns="http://www.w3.org/2000/svg"
   xmlns:sodipodi="http://sodipodi.sourceforge.net/DTD/sodipodi-0.dtd"
   xmlns:inkscape="http://www.inkscape.org/namespaces/inkscape"
   version="1.1"
   id="Layer_1"
   x="0px"
   y="0px"
   viewBox="0 0 122.88 109.57"
   style="enable-background:new 0 0 122.88 109.57"
   xml:space="preserve"
   sodipodi:docname="heart-thin-red.svg"
   inkscape:version="1.0.1 (3bc2e813f5, 2020-09-07)"><metadata
     id="metadata11"><rdf:RDF><cc:Work
         rdf:about=""><dc:format>image/svg+xml</dc:format><dc:type
           rdf:resource="http://purl.org/dc/dcmitype/StillImage" /></cc:Work></rdf:RDF></metadata><defs
     id="defs9" /><sodipodi:namedview
     pagecolor="#ffffff"
     bordercolor="#666666"
     borderopacity="1"
     objecttolerance="10"
     gridtolerance="10"
     guidetolerance="10"
     inkscape:pageopacity="0"
     inkscape:pageshadow="2"
     inkscape:window-width="1680"
     inkscape:window-height="987"
     id="namedview7"
     showgrid="false"
     inkscape:zoom="7.7575979"
     inkscape:cx="61.439999"
     inkscape:cy="49.628765"
     inkscape:window-x="-8"
     inkscape:window-y="18"
     inkscape:window-maximized="1"
     inkscape:current-layer="Layer_1" /><g
     id="g4"><path
       d="M65.46,19.57c-0.68,0.72-1.36,1.45-2.2,2.32l-2.31,2.41l-2.4-2.33c-0.71-0.69-1.43-1.4-2.13-2.09 c-7.42-7.3-13.01-12.8-24.52-12.95c-0.45-0.01-0.93,0-1.43,0.02c-6.44,0.23-12.38,2.6-16.72,6.65c-4.28,4-7.01,9.67-7.1,16.57 c-0.01,0.43,0,0.88,0.02,1.37c0.69,19.27,19.13,36.08,34.42,50.01c2.95,2.69,5.78,5.27,8.49,7.88l11.26,10.85l14.15-14.04 c2.28-2.26,4.86-4.73,7.62-7.37c4.69-4.5,9.91-9.49,14.77-14.52c3.49-3.61,6.8-7.24,9.61-10.73c2.76-3.42,5.02-6.67,6.47-9.57 c2.38-4.76,3.13-9.52,2.62-13.97c-0.5-4.39-2.23-8.49-4.82-11.99c-2.63-3.55-6.13-6.49-10.14-8.5C96.5,7.29,91.21,6.2,85.8,6.82 C76.47,7.9,71.5,13.17,65.46,19.57L65.46,19.57z M60.77,14.85C67.67,7.54,73.4,1.55,85.04,0.22c6.72-0.77,13.3,0.57,19.03,3.45 c4.95,2.48,9.27,6.1,12.51,10.47c3.27,4.42,5.46,9.61,6.1,15.19c0.65,5.66-0.29,11.69-3.3,17.69c-1.7,3.39-4.22,7.03-7.23,10.76 c-2.95,3.66-6.39,7.44-10,11.17C97.2,74.08,91.94,79.12,87.2,83.66c-2.77,2.65-5.36,5.13-7.54,7.29L63.2,107.28l-2.31,2.29 l-2.34-2.25l-13.6-13.1c-2.49-2.39-5.37-5.02-8.36-7.75C20.38,71.68,0.81,53.85,0.02,31.77C0,31.23,0,30.67,0,30.09 c0.12-8.86,3.66-16.18,9.21-21.36c5.5-5.13,12.97-8.13,21.01-8.42c0.55-0.02,1.13-0.03,1.74-0.02C46,0.48,52.42,6.63,60.77,14.85 L60.77,14.85z"
       id="path2" /></g><path
     style="fill:#ff0000;stroke-width:0.128906"
     d="M 52.352134,101.23127 C 47.67285,96.72248 40.740937,90.180611 36.947881,86.693783 24.563172,75.308935 19.999222,70.756511 15.081498,64.882626 4.6305323,52.399665 -0.25203694,40.837073 0.12136878,29.454994 0.16323533,28.178826 0.2913643,26.529065 0.40609979,25.788858 2.5595697,11.895925 13.445003,2.0287837 28.302264,0.5022759 30.138209,0.31364197 35.075666,0.42483129 36.891346,0.69569814 42.230811,1.492251 46.21592,3.0255975 50.415514,5.8993796 c 2.500004,1.7107538 4.842334,3.7026311 8.27271,7.0349724 l 2.082196,2.02269 1.978339,-2.078349 c 4.755542,-4.9959479 8.267094,-7.7761058 12.29081,-9.7308527 3.131579,-1.5213412 6.000574,-2.34604226 9.848406,-2.83095281 2.125021,-0.26779909 6.820922,-0.20434495 8.842947,0.11949182 3.503912,0.56116761 6.950578,1.67632529 10.237268,3.31223729 10.55622,5.254239 17.61775,15.2002094 18.71484,26.3593414 0.19488,1.982283 0.0765,5.324611 -0.25992,7.339201 -1.01545,6.080577 -3.44058,11.190158 -8.50427,17.917917 -5.09454,6.768752 -12.35838,14.433383 -26.568759,28.034707 -4.673534,4.473229 -7.384765,7.131229 -16.4355,16.112824 -4.395691,4.362113 -8.456226,8.377813 -9.023412,8.923783 l -1.031247,0.99267 z M 68.64753,92.651103 C 72.875105,88.450382 79.262201,82.203946 82.841077,78.770133 98.623535,63.627386 105.66486,56.051097 110.7035,48.790876 115.48937,41.894862 117.1738,35.117091 115.83101,28.158891 113.86928,17.993445 105.01429,9.3592603 94.291732,7.1566987 87.473917,5.7562258 80.500066,7.0193583 75.106715,10.631568 c -2.739012,1.834459 -4.750499,3.70039 -10.605239,9.837819 -1.91355,2.005943 -3.529361,3.630157 -3.590689,3.609364 -0.06133,-0.02079 -1.716395,-1.60401 -3.677922,-3.518263 C 50.336429,13.830266 48.032731,11.903946 44.633459,10.02504 37.304065,5.973807 26.994831,5.8140161 19.362951,9.6333525 11.788523,13.423936 7.226592,20.332366 6.657946,28.873368 c -0.5768281,8.663895 2.9667299,18.193248 10.449661,28.101276 5.20722,6.894798 10.464953,12.299577 24.35198,25.033049 3.438564,3.152934 8.659253,8.05183 11.601529,10.886439 2.942277,2.834608 5.871663,5.655801 6.509747,6.269318 0.638084,0.613517 1.211906,1.1177 1.275159,1.12041 0.06325,0.003 3.573933,-3.432037 7.801508,-7.632757 z"
     id="path13" /><path
     style="fill:#ff0000;stroke-width:0.128906"
     d="M 54.841394,94.387406 C 47.482482,87.302821 46.49189,86.37165 39.719358,80.172472 30.077524,71.346904 25.447375,66.737436 20.951164,61.488106 11.956421,50.986736 7.4125641,41.633564 6.7970471,32.352968 6.3484224,25.588729 8.3943113,19.479844 12.658284,14.851711 16.392353,10.798738 21.641558,8.1371094 27.61588,7.2674074 c 1.854988,-0.2700367 5.85449,-0.3033659 7.656225,-0.063802 4.137882,0.5501852 7.768712,1.8725115 11.021452,4.0139456 2.816474,1.854219 4.537036,3.348224 10.203031,8.85954 2.423529,2.357366 4.433715,4.286121 4.467084,4.286121 0.03337,0 1.948079,-1.986762 4.25491,-4.415027 5.273038,-5.550613 7.292478,-7.399097 10.143252,-9.284572 9.753439,-6.4508317 23.482806,-4.8294798 32.603766,3.850301 5.6467,5.373566 8.61816,12.609893 8.12027,19.775152 -0.39523,5.687988 -2.51377,10.537934 -7.4608,17.079928 -4.95894,6.557731 -11.35807,13.317524 -25.01326,26.423031 -2.80048,2.687748 -9.072214,8.81828 -13.937185,13.623404 l -8.845403,8.736591 z"
     id="path15" /><path
     style="fill:#ff0000;stroke-width:0.128906"
     d=""
     id="path17" /><path
     style="fill:#ff0000;stroke-width:0.128906"
     d=""
     id="path19" /><path
     style="fill:#ff0000;stroke-width:0.128906"
     d="M 56.459916,105.08691 C 48.352757,97.279657 42.358551,91.602705 36.625616,86.302376 29.179048,79.417722 27.11323,77.45376 23.280133,73.614899 18.314469,68.641767 15.035264,64.927427 11.83427,60.650217 5.5017102,52.18857 1.8891082,44.361949 0.58872847,36.287006 0.24579614,34.157505 0.10850551,29.377648 0.32625632,27.148878 1.1761591,18.449769 5.9420173,10.591895 13.293652,5.7684337 17.217719,3.193824 21.839801,1.488291 26.870803,0.75850874 c 1.695576,-0.24595516 2.272188,-0.267411 5.565372,-0.20708862 2.907387,0.0532556 3.996525,0.12323563 5.220688,0.33544332 7.836302,1.35841666 13.068155,4.37819396 20.960909,12.09844356 1.106458,1.082277 2.054254,1.967775 2.106212,1.967775 0.05196,0 1.466979,-1.382845 3.144492,-3.07299 4.595163,-4.6297674 7.142976,-6.6118049 10.922563,-8.4970619 2.580489,-1.2871474 4.91238,-2.0875832 7.559052,-2.5946901 2.491337,-0.47734431 3.847979,-0.56728657 7.442803,-0.49344088 3.183963,0.0654057 3.556584,0.0983286 5.348318,0.47255039 7.265348,1.51744239 14.216578,5.43423349 18.998758,10.70517349 4.35011,4.794718 7.03327,10.214628 8.23223,16.628859 0.28561,1.527946 0.32842,7.342537 0.0655,8.894506 -1.10152,6.501786 -3.45603,11.506188 -8.67277,18.433541 -5.07265,6.736017 -11.54558,13.548515 -27.123811,28.546717 C 84.514152,86.024 78.336337,92.085848 72.912622,97.447019 67.488907,102.80819 62.553775,107.66943 61.945663,108.24978 l -1.105658,1.05518 z M 68.277628,93.114304 c 4.00266,-3.945961 9.887909,-9.699506 13.078329,-12.785656 16.254117,-15.722897 22.786493,-22.591205 27.604523,-29.024107 3.21438,-4.291746 4.83308,-7.173559 6.03944,-10.752183 1.74715,-5.182799 1.76456,-10.327349 0.0524,-15.480164 C 112.82976,18.383256 107.42965,12.462537 100.59276,9.2186112 93.323458,5.7695155 84.805963,5.6727611 77.960641,8.9615222 74.114668,10.809278 71.571778,12.978948 63.918262,20.9429 l -2.969011,3.089437 -2.400518,-2.316001 C 50.276085,13.734955 48.395275,12.126558 45.151463,10.259499 41.441576,8.1241796 37.365634,7.0211635 32.624895,6.8696056 27.793652,6.7151546 23.423668,7.6003158 19.466325,9.5349364 9.3456456,14.482621 4.6972116,24.96939 7.2344583,37.129771 c 1.3010254,6.235485 4.6894407,13.058249 9.9525347,20.039988 4.974883,6.59941 9.883239,11.646026 24.138902,24.818851 5.740237,5.304217 8.864527,8.243766 13.346545,12.557347 5.459321,5.25416 5.983219,5.742823 6.156947,5.742823 0.09387,0 3.445581,-3.228516 7.448241,-7.174476 z"
     id="path21" /><path
     style="fill:#ff0000;stroke-width:0.128906"
     d="M 56.650495,105.28453 C 46.991637,95.98526 44.126929,93.273137 35.852181,85.594014 28.290779,78.576888 24.614326,75.061107 21.665685,72.027514 8.3388555,58.316719 1.4557376,46.084437 0.32997657,34.110913 0.12425465,31.922869 0.23817272,27.05037 0.53376561,25.394459 2.7822261,12.798585 11.880772,3.7039175 24.830728,1.107853 27.301715,0.61249693 28.388296,0.51558654 31.466,0.51606401 c 4.243163,6.5871e-4 6.978494,0.33380329 10.044029,1.22329529 5.763882,1.6724413 10.183437,4.5560339 16.868491,11.0060537 1.258463,1.214219 2.332141,2.207669 2.385951,2.207669 0.05381,0 1.02192,-0.96406 2.151353,-2.142356 4.799395,-5.0070288 7.937167,-7.4720192 12.123745,-9.5242503 3.189432,-1.5634371 5.759108,-2.33965778 9.41013,-2.8425135 1.965866,-0.2707591 8.022906,-0.20138414 9.667941,0.1107328 5.744182,1.0898596 10.7002,3.2399401 15.21089,6.5989762 6.26103,4.6624798 10.57818,11.0202718 12.4494,18.3340138 0.7582,2.963461 0.93177,4.583523 0.85321,7.963391 -0.0719,3.093293 -0.22024,4.213519 -0.91632,6.919418 -1.23883,4.81584 -3.58462,9.268146 -7.90022,14.994582 -5.22432,6.932249 -10.88004,12.879424 -27.82077,29.254453 -2.196338,2.122996 -8.401924,8.214797 -13.79019,13.537335 -5.388266,5.322536 -10.150445,10.010176 -10.58262,10.416986 l -0.785772,0.73964 z m 7.887053,-8.508439 C 66.516243,94.844114 70.7328,90.710642 73.907678,87.590598 77.082555,84.470554 82.319529,79.359531 85.545399,76.23277 100.04629,62.177396 106.8722,54.700255 111.20764,48.1222 c 4.48967,-6.812048 6.0056,-13.441842 4.62203,-20.214077 -1.93288,-9.460958 -9.89324,-17.655406 -19.784503,-20.3663016 -2.689985,-0.737243 -4.017551,-0.9013182 -7.277121,-0.899387 -3.017908,0.00179 -4.02849,0.1152298 -6.380842,0.7162749 -3.708641,0.9475879 -7.028595,2.7194717 -10.183564,5.4350437 -1.788565,1.539469 -4.07171,3.784954 -8.089935,7.956489 l -3.16282,3.283494 -2.141706,-2.058889 C 52.144433,15.567815 50.236095,13.823132 48.201426,12.276789 43.151987,8.4392258 37.295402,6.6441701 30.56704,6.8718109 24.050951,7.09227 18.309979,9.3059569 13.907543,13.295621 7.9359601,18.707308 5.4096602,27.066404 7.0351533,36.035188 c 1.2217874,6.741307 4.5263937,13.641509 10.0599147,21.005665 4.963013,6.604909 9.827424,11.614844 24.041679,24.760914 5.893616,5.450719 8.878493,8.25873 13.342334,12.551745 5.394694,5.188249 6.191014,5.935268 6.327009,5.935268 0.07361,0 1.752763,-1.580712 3.731458,-3.512689 z"
     id="path23" /><path
     style="fill:#ff0000;stroke-width:0.128906"
     d="M 56.651805,105.29008 C 48.309765,97.251221 42.701923,91.944958 35.078746,84.877181 28.44909,78.730541 24.700242,75.141127 21.717509,72.084183 8.4075,58.443014 1.4575229,46.103426 0.32997657,34.110913 0.13230058,32.008444 0.24054312,27.064057 0.51938622,25.458912 1.5823877,19.339801 4.1980908,14.116533 8.3215794,9.8788028 12.936474,5.1360503 18.50007,2.2905953 25.926428,0.87494817 27.341682,0.60516598 27.829762,0.58024008 31.66274,0.58199931 c 4.582841,0.002103 5.613529,0.101609 8.577517,0.82809799 6.255592,1.5332786 10.960133,4.4430591 17.855197,11.0435267 1.102777,1.05566 2.153053,2.052154 2.333947,2.214431 l 0.328897,0.295047 3.209006,-3.200646 c 4.704759,-4.6925038 7.09894,-6.5259139 11.072265,-8.4788951 3.165497,-1.5559144 5.748018,-2.33521555 9.41013,-2.8395987 1.974072,-0.27188929 8.021869,-0.20138635 9.680871,0.11285595 9.36147,1.77321535 17.46109,6.83330415 22.62116,14.13215485 3.18481,4.504865 5.15167,9.50653 5.79637,14.74001 0.20419,1.657569 0.0909,6.421064 -0.19226,8.082629 -1.01471,5.954612 -3.52862,11.209284 -8.54135,17.853464 -5.3144,7.044027 -10.52412,12.518146 -28.272025,29.706876 -2.302579,2.230034 -8.511104,8.320836 -13.796723,13.535118 -5.285619,5.21428 -9.902051,9.75884 -10.258742,10.09902 l -0.648525,0.6185 z m 6.824513,-7.482742 c 1.395746,-1.364791 4.715791,-4.627721 7.37788,-7.250956 2.662088,-2.623235 7.622219,-7.463983 11.022512,-10.757218 16.271286,-15.758981 22.30507,-22.123035 27.22083,-28.710808 4.74187,-6.354737 6.80251,-11.292692 7.19875,-17.250562 0.10163,-1.52807 -0.10782,-4.122402 -0.47873,-5.929671 -1.35469,-6.600771 -5.70398,-12.76034 -11.83862,-16.766112 C 99.614014,8.2918178 94.968901,6.8019402 89.863746,6.614692 83.399433,6.3775922 77.727882,8.2587009 72.822902,12.266705 c -1.440776,1.177301 -4.000166,3.670193 -8.153985,7.942132 -2.01715,2.074511 -3.711114,3.756396 -3.764365,3.737521 -0.05325,-0.01887 -1.825305,-1.692489 -3.937901,-3.719143 C 49.248931,12.823454 47.343157,11.291389 43.586534,9.4708487 37.210875,6.3810673 28.839407,5.9875491 22.013865,8.4567807 16.399299,10.487926 11.598061,14.633672 9.0951078,19.611799 7.9872387,21.81524 7.1298567,24.607802 6.7656152,27.199141 c -0.2490912,1.772121 -0.2096694,5.758141 0.075856,7.6699 1.1425296,7.649913 4.9968628,15.582654 11.6496178,23.976494 4.712766,5.946138 9.356121,10.65095 22.645542,22.945265 5.833584,5.396769 8.627573,8.024134 12.891279,12.122488 5.151225,4.951455 6.66809,6.375492 6.791103,6.375492 0.06577,0 1.26156,-1.116651 2.657305,-2.481442 z"
     id="path25" /><path
     style="fill:#ff0000;stroke-width:0.128906"
     d="M 55.112817,94.543669 C 48.609872,88.288822 45.665203,85.519305 39.073646,79.458523 30.882281,71.926753 26.39621,67.516281 22.696377,63.357241 12.259226,51.624678 7.3021525,41.694923 6.8336968,31.581941 6.6455666,27.520603 7.5229705,23.372324 9.3134693,19.857822 12.69318,13.223915 19.072309,8.7820364 27.215487,7.392391 c 1.853517,-0.3163054 7.236072,-0.316598 8.958959,-4.87e-4 4.722174,0.866413 8.180317,2.3821155 11.988247,5.254444 1.911024,1.441489 3.487976,2.870346 8.542168,7.739956 2.27021,2.1873 4.192462,3.976908 4.271672,3.976908 0.07921,0 1.372667,-1.29067 2.874351,-2.868156 2.948431,-3.097264 7.148045,-7.299941 8.283973,-8.290015 3.550177,-3.094331 7.316769,-4.9912767 11.799218,-5.9423692 1.559078,-0.3308073 1.891221,-0.3558291 4.769518,-0.3593103 3.291867,-0.00398 4.148397,0.092923 6.784641,0.7675906 4.604856,1.1784728 8.906066,3.5772339 12.428336,6.9312109 5.65407,5.383915 8.70345,12.908312 8.07097,19.915215 -0.57249,6.342387 -2.95197,11.259658 -9.24614,19.107469 -4.49969,5.610384 -9.400054,10.728152 -21.776078,22.742157 -8.3881,8.142734 -14.172646,13.811532 -20.76464,20.349139 l -3.362345,3.334607 z"
     id="path27" /><path
     style="fill:#ff0000;stroke-width:0.128906"
     d="M 55.427587,94.854946 C 48.450204,88.141602 46.535907,86.336878 40.684747,80.955971 27.112584,68.474593 22.12566,63.297632 16.847625,56.210485 8.6974977,45.266798 5.3493265,34.330969 7.3779723,25.280612 9.5046792,15.792776 16.860877,9.1594205 27.215487,7.392391 c 1.861969,-0.3177479 7.240228,-0.3167216 8.958959,0.00171 4.093514,0.7584104 7.164382,1.9683603 10.330597,4.070348 2.606025,1.730089 4.325273,3.246237 11.322192,9.984662 1.664239,1.602755 3.06322,2.914101 3.108845,2.914101 0.08251,0 2.171399,-2.114874 5.85682,-5.929671 C 73.007145,12.00115 76.239277,9.6275881 80.904787,8.0702734 83.269104,7.281081 85.170498,6.953703 87.871842,6.870701 c 3.549658,-0.1090674 6.12363,0.255244 9.403992,1.33101 11.615986,3.809359 19.677366,15.118397 18.720866,26.262874 -0.51177,5.962825 -2.79234,10.910643 -8.26222,17.925297 -4.75473,6.097549 -9.589257,11.184939 -23.088857,24.296498 -8.291619,8.053278 -14.743197,14.375027 -20.769851,20.351885 l -3.042725,3.017585 z"
     id="path29" /><path
     style="fill:#ff0000"
     id="path35"
     d="m 15.032199,12.442517 c 0.75171,0.282524 1.541596,0.449632 2.318404,0.648106 0.4746,0.138958 0.246734,0.07004 0.683858,0.205886 0,0 1.552885,-1.060276 1.552885,-1.060276 v 0 c -0.449579,-0.131114 -0.215362,-0.06329 -0.702718,-0.203234 -0.755151,-0.188109 -1.518989,-0.355794 -2.24792,-0.633479 0,0 -1.604509,1.042997 -1.604509,1.042997 z" /><path
     style="fill:#ff0000"
     id="path37"
     d="m 16.786786,9.0549111 c -0.05184,0.8038192 0.246309,1.5886009 0.773591,2.1953349 0.161519,0.185857 0.35485,0.341476 0.532276,0.512214 0.586521,0.437516 1.223123,0.828131 1.940242,1.010295 0.244866,0.0622 0.73553,0.137942 0.994101,0.0041 0.667719,-0.345503 1.290082,-0.772383 1.935123,-1.158574 0.05779,-0.129976 0.137139,-0.252376 0.173375,-0.389928 0.112027,-0.425264 0.01837,-1.001498 -0.284733,-1.3325554 -0.05255,-0.057397 -0.124336,-0.093616 -0.186504,-0.1404236 -0.904323,-0.03648 -0.423748,-0.059779 -2.007545,1.161544 -0.06289,0.0485 -0.194983,0.538048 -0.248758,0.602023 -0.03713,0.04417 -0.214392,0.07817 -0.167152,0.04503 0.494832,-0.347107 1.011774,-0.661574 1.517661,-0.992361 -0.489534,-0.6414969 -0.685778,-1.4651037 -1.197797,-2.0881478 -0.852111,-0.1942223 -0.510981,-0.16796 -1.88962,1.2566307 -0.118441,0.1223887 -0.03745,0.3386091 -0.05148,0.5083451 -0.04847,0.58634 -0.05834,1.155852 -0.02437,1.742615 0.04014,0.179161 0.07163,0.549798 0.25641,0.694148 0.06598,0.05154 0.170131,0.102222 0.243452,0.0618 0.634026,-0.349541 1.256288,-0.733114 1.813255,-1.195668 0.04849,-0.04027 0.259492,-0.858566 0.269032,-0.893915 0.04925,-0.221043 0.13244,-0.584728 0.176514,-0.8161523 0.01194,-0.062689 0.08625,-0.2181687 0.0294,-0.1891753 -1.670254,0.8518466 -1.78186,0.5354576 -1.748819,1.6785726 0.03665,0.104738 0.05436,0.218182 0.109961,0.314214 0.340091,0.587389 0.950584,0.547369 1.510193,0.390163 0.706831,-0.314198 1.049089,-0.452161 1.853085,-1.191962 0.07516,-0.06916 -0.141996,-0.151203 -0.230983,-0.201339 -0.189514,-0.106771 -0.459277,-0.11805 -0.668656,-0.17435 0.61063,0.461928 -0.07015,-0.13442 -1.118883,0.944025 -0.184213,0.189432 0.498065,-0.17666 0.746797,-0.265831 0.35983,-0.128998 0.720284,-0.256304 1.078888,-0.388675 1.464835,-0.540712 1.205203,-0.449878 2.676123,-1.0543513 C 25.861533,9.5898164 27.356279,8.9652989 27.732872,8.8130831 27.91424,8.7397757 28.10846,8.6947207 28.279857,8.6004262 28.851675,8.2858395 29.511775,8.0671236 29.956693,7.589643 30.097608,7.438415 29.55943,7.4474988 29.35273,7.4490332 c -0.355521,0.00264 -0.703715,0.1019526 -1.055573,0.1529288 -2.070863,0.2848808 -4.150676,0.4955455 -6.231041,0.6961223 -1.14737,0.1106228 -0.656416,0.082093 -1.499885,0.1138152 0.547028,0.046993 -0.649147,-0.065654 -1.08401,0.9316322 -0.110943,0.2544281 0.537459,-0.1394069 0.808436,-0.1995199 0.981847,-0.2178114 1.975717,-0.3859991 2.965735,-0.5614162 0.569255,-0.056144 1.207458,-0.2326779 1.777633,-0.047414 0.0775,0.025183 0.176568,0.058353 0.203696,0.1351986 0.01911,0.054135 -0.06373,0.097978 -0.108852,0.1334676 -0.100477,0.079023 -0.215489,0.1375716 -0.323234,0.2063575 0.340104,-0.208187 0.741573,-0.3393986 1.02031,-0.624561 0.185929,-0.1902148 -0.48275,0.2238567 -0.728385,0.3259075 -0.281522,0.1169597 -1.16139,0.4475739 -1.476162,0.5506096 -0.388271,0.1270943 -0.279551,0.1455403 -0.454489,0.1056112 0.111724,-0.020947 0.233242,-0.012531 0.335173,-0.062841 0.19886,-0.098151 0.362506,-0.2559012 0.550133,-0.374117 0.269722,-0.1699403 0.537556,-0.3447182 0.82133,-0.4899834 0.176041,-0.090116 -0.683764,0.389115 -0.497034,0.3239747 0.370053,-0.1290923 0.699702,-0.3536393 1.05518,-0.5186829 0.331579,-0.153948 0.670299,-0.292026 1.005449,-0.438039 0.74143,-0.2820127 1.49916,-0.6007546 2.295129,-0.6986755 0.256359,-0.031537 0.568638,-0.032993 0.811797,0.084691 0.07785,0.03768 0.131878,0.1119468 0.197818,0.1679202 -0.0055,0.072504 0.01839,0.1536737 -0.01642,0.2175119 -0.152645,0.2799691 -0.99093,0.7889891 -0.787019,0.5438291 0.198655,-0.238841 0.991173,-0.3379903 0.757591,-0.5428039 -0.259881,-0.2278745 -0.648925,0.2383394 -0.975403,0.3518176 -0.326671,0.1135453 -0.655941,0.2194713 -0.983911,0.329207 -1.17787,0.3959365 -2.182783,0.5057835 -2.980415,1.6570952 -0.132433,0.1911544 0.449687,-0.1187203 0.674618,-0.1777509 0.363988,-0.095525 0.728091,-0.19061 1.092137,-0.285915 2.870347,-0.7418402 5.791675,-1.2633621 8.738468,-1.5777872 0.696281,-0.02843 1.429952,-0.1186987 2.114952,0.075169 0.0036,0.00101 0.427072,0.1049992 0.347076,0.282524 -0.0345,0.076568 -0.127421,0.1094375 -0.191131,0.1641562 -0.137183,0.089186 -0.543385,0.3644731 -0.411549,0.2675584 0.269836,-0.1983598 1.070537,-0.3434451 0.82588,-0.572139 -0.269626,-0.2520339 -0.692791,0.2554645 -1.044307,0.3679638 -1.057077,0.3383078 -2.137648,0.6019739 -3.216464,0.8594065 -0.217195,0.042298 -0.432978,0.092634 -0.651585,0.1268945 -0.831536,0.1303213 -0.389565,-0.4650974 -1.637907,1.1015861 -0.148775,0.186714 0.448482,-0.16466 0.677053,-0.233587 0.488651,-0.147355 1.749622,-0.4673678 2.211593,-0.5867243 1.329565,-0.3665891 3.208249,-0.6403441 4.040875,-1.9250809 0.124021,-0.1913626 -0.413899,-0.2048549 -0.638049,-0.246777 -0.365139,-0.068291 -0.741002,-0.053624 -1.111503,-0.080437 -1.399943,-0.039147 -2.799289,0.040993 -4.19564,0.1307032 -0.360275,0.023146 -0.720007,0.054374 -1.080329,0.076779 -0.599686,0.037289 -0.461485,0.1717342 -0.61831,0.00788 -0.353583,0.3381868 -0.997307,0.5294143 -1.060751,1.0145603 -0.04163,0.318381 0.63257,-0.110769 0.949388,-0.1629794 0.402291,-0.066296 0.804755,-0.1316657 1.207903,-0.1925333 1.140992,-0.1722678 2.283373,-0.3173088 3.430703,-0.4387064 0.24332,-0.016829 0.486198,-0.042202 0.729958,-0.050488 0.145176,-0.00493 0.291501,-0.00711 0.435643,0.010868 0.04022,0.00502 0.143399,0.038127 0.107467,0.056878 -0.06539,0.034124 -0.280638,0.046259 -0.221259,0.0025 0.393764,-0.2901518 0.853839,-0.4808681 1.253367,-0.7630307 0.141946,-0.1002479 -0.317016,0.1424577 -0.475524,0.2136866 -0.307991,0.082346 -0.960172,0.4296925 -1.292806,0.2934065 -0.05569,-0.022817 -0.07436,-0.095876 -0.09429,-0.1418892 -0.198808,-0.3784247 -0.851048,-0.3519898 -1.208289,-0.3741269 -0.714231,-0.044259 -0.801619,-0.03141 -1.527324,-0.027782 -1.29344,0.042152 -1.567379,-0.1750739 -2.587586,1.2024357 -0.09549,0.1289363 0.320581,0.014604 0.480969,0.018939 0.214702,0.0058 0.429492,0.00765 0.644238,0.011469 0.592887,0.017932 1.186094,0.014116 1.77902,0.0018 0.107245,-0.00223 0.214435,-0.00694 0.321691,-0.00852 0.03094,-4.557e-4 0.06837,0.021403 0.09281,0.00242 0.471456,-0.3663015 0.918331,-0.7631892 1.377496,-1.1447837 -1.33581,-0.033172 -2.680356,0.072043 -4.009997,-0.086345 -0.06521,-0.028303 -0.157896,-0.024666 -0.19564,-0.084909 -0.02409,-0.038443 0.172512,-0.03728 0.135666,-0.010815 -0.404329,0.2904122 -0.897612,0.4642054 -1.252688,0.8131226 -0.155319,0.1526261 0.411982,-0.1432538 0.623533,-0.1948786 0.621563,-0.1516801 1.146943,-0.2038352 1.783118,-0.2892194 0.773766,-0.077282 1.548785,-0.1656407 2.327334,-0.1757753 0.302099,-0.00393 0.649661,-0.018947 0.934821,0.1017078 -0.637296,-0.1823512 0.09031,0.052567 1.276275,-0.9234062 0.121724,-0.1001714 -0.299736,0.098712 -0.452701,0.1368278 -0.209684,0.052249 -0.42221,0.092518 -0.634283,0.1340271 -0.469888,0.091971 -0.942085,0.1717254 -1.413063,0.2579431 -1.117312,0.2132283 -1.578251,0.1076707 -2.420728,1.3417224 -0.109621,0.1605727 0.388326,-0.020122 0.582484,-0.030293 0.297492,-0.015585 0.594978,-0.031317 0.892467,-0.046975 1.048787,-0.042618 2.098017,-0.092859 3.148048,-0.083559 0.551069,0.00488 1.114469,0.00103 1.650452,0.1403966 0.448209,-0.3482605 1.078604,-0.5433753 1.344629,-1.0447815 0.142108,-0.2678454 -0.590907,0.1381584 -0.890007,0.1879058 -0.557619,0.092745 -1.119266,0.1593943 -1.67886,0.2393573 -0.780334,0.1115054 -1.561728,0.2158556 -2.340925,0.335048 -2.418022,0.3698813 -3.29927,0.5399895 -5.745701,0.9710581 -4.421025,0.7705229 -8.786761,1.8160489 -13.189253,2.6786869 -1.297705,0.299173 -2.670974,0.326216 -3.925163,0.799817 -0.60885,0.346777 -1.239832,0.657298 -1.8265505,1.04033 -0.049179,0.03211 -0.060728,0.121805 -0.032314,0.173205 0.1480778,0.267868 0.4401005,0.275272 0.7063595,0.258287 0.546818,-0.03488 1.141642,-0.231839 1.657386,-0.37229 1.852217,-0.561622 3.609176,-1.370618 5.311369,-2.281954 -0.799678,0.170078 0.585674,-0.239625 0.448312,-0.160167 -0.04481,0.02592 -0.1117,9.1e-4 -0.151517,0.03398 -0.09798,0.08138 -0.157969,0.200116 -0.243717,0.294301 -0.340975,0.374519 -0.599243,0.605198 -0.975346,0.962855 -1.076422,0.909013 -2.238229,1.715865 -3.431606,2.463326 -0.641691,0.416256 -1.899708,1.139027 1.274522,-0.552476 0.158777,-0.08461 0.489763,-0.867837 0.553,-0.999481 0.07565,-0.183397 0.152708,-0.366223 0.226965,-0.55019 0.094,-0.23287 0.297372,-0.762039 0.402026,-1.008188 0.048,-0.112889 0.09173,-0.228352 0.152419,-0.334958 0.02798,-0.04915 0.162181,-0.152678 0.111212,-0.128157 -0.589983,0.283845 -1.15983,0.60777 -1.739745,0.911656 -0.484056,1.197869 -1.118896,2.327435 -1.698275,3.48043 -0.219684,0.5314 -0.553774,1.029154 -0.717496,1.584899 -0.03962,0.134494 -0.08339,0.511411 0.126276,0.40542 0.633331,-0.320164 1.200724,-0.756779 1.801087,-1.135168 0.373841,-0.869108 0.705685,-1.762322 0.978871,-2.668718 -0.613643,0.283174 -1.258536,0.506647 -1.840931,0.84952 -0.121945,0.07179 -0.142718,0.244506 -0.219384,0.363447 -0.124954,0.193858 -0.254405,0.384815 -0.385317,0.574701 -0.553674,0.803098 -1.138593,1.583262 -1.72192,2.364837 -0.5222148,0.714202 -1.0563344,1.419951 -1.5449955,2.157976 -0.2430228,0.367037 -0.4978728,0.740194 -0.6533952,1.15435 0.6197502,-0.287408 1.2721125,-0.512993 1.8592507,-0.862224 0.123018,-0.07317 0.14473,-0.247001 0.215132,-0.371624 0.109284,-0.193455 0.22032,-0.386011 0.323906,-0.582576 0.402963,-0.764666 0.774916,-1.546996 1.165814,-2.317931 0.318148,-0.58243 0.634979,-1.165553 0.979735,-1.732807 0.05711,-0.09397 0.114618,-0.187747 0.175025,-0.279633 0.01963,-0.02986 0.09745,-0.100079 0.0649,-0.08532 -0.62717,0.284355 -1.239944,0.599448 -1.859916,0.899171 -0.819374,1.110148 -1.5984455,2.247826 -2.3751736,3.387875 -0.052738,0.103662 -0.1638494,0.194816 -0.1582142,0.310986 0.00408,0.08406 0.1059202,0.21158 0.1817973,0.175182 0.7050114,-0.338188 1.3663395,-0.767245 2.0019295,-1.222698 0.225179,-0.16136 0.376524,-0.406502 0.560575,-0.613548 0.48381,-0.544255 1.049046,-1.212308 1.518296,-1.76188 0.73788,-0.83054 1.399017,-1.724855 2.115624,-2.572959 0.14191,-0.167949 0.288077,-0.332428 0.438971,-0.492353 0.06674,-0.07073 0.302831,-0.237042 0.213337,-0.198995 -0.621143,0.264068 -1.214784,0.588643 -1.822176,0.882964 -0.769274,1.152095 -1.521154,2.32217 -2.400722,3.394498 -0.06135,0.03992 -0.24941,0.152737 -0.184063,0.119758 0.578924,-0.292173 1.17607,-0.553949 1.725834,-0.897863 0.08364,-0.05233 0.08606,-0.17763 0.132522,-0.264667 0.07674,-0.143734 0.155088,-0.286659 0.237007,-0.427503 0.105066,-0.180639 0.487015,-0.800265 0.597669,-0.98046 0.124628,-0.250815 0.289255,-0.477721 0.429709,-0.719044 0.02422,-0.04161 0.10897,-0.147866 0.0646,-0.129176 -1.907818,0.80366 -1.527899,0.415893 -2.196087,1.447985 -0.0514,0.0832 -0.335335,0.548641 -0.406834,0.643442 -0.03501,0.04642 -0.08254,0.08191 -0.123813,0.12287 0.582873,-0.292607 1.189594,-0.54189 1.74862,-0.877821 0.07912,-0.04754 0.08544,-0.163728 0.124107,-0.247541 0.06181,-0.133978 0.118164,-0.270411 0.177246,-0.405616 0.201885,-0.416418 0.366458,-0.850624 0.575969,-1.263465 0.0435,-0.08571 0.07954,-0.177717 0.141352,-0.251324 0.02535,-0.03019 0.143581,-0.06497 0.108744,-0.04651 -0.584158,0.309508 -1.171364,0.613227 -1.757047,0.919841 -0.424574,1.124633 -0.938946,2.211817 -1.483487,3.282586 -0.03672,0.07503 -0.188776,0.253312 -0.110158,0.225085 0.618852,-0.2222 1.221656,-0.498115 1.79026,-0.828328 0.09466,-0.05497 0.09093,-0.199399 0.144131,-0.295058 0.294278,-0.529085 0.613998,-1.047638 0.920457,-1.569917 0.0943,-0.303599 0.339494,-0.527784 0.466959,-0.813188 0.0164,-0.03671 0.04116,-0.138835 0.0054,-0.120505 -0.66368,0.339951 -1.350272,0.65705 -1.941074,1.112012 -0.219155,0.168765 -0.284124,0.474674 -0.426958,0.711546 -0.207694,0.344434 -0.416416,0.688246 -0.624625,1.03237 -1.346847,2.153743 -2.6380555,4.341423 -3.8818661,6.556115 -0.1744736,0.339472 -0.3633217,0.671308 -0.5405468,1.009312 -0.047125,0.08988 -0.087873,0.183089 -0.137185,0.271784 -0.019198,0.03453 -0.1036197,0.114063 -0.067921,0.09713 C 8.65814,23.777789 8.4707959,24.371494 8.6560199,23.521125 8.7924967,22.750279 8.852823,21.968846 8.928209,21.19041 8.929999,21.12334 8.949774,21.054307 8.933579,20.989196 8.921858,20.942076 8.89147,20.847807 8.848708,20.870808 c -0.605136,0.325494 -1.2052389,0.672968 -1.7425097,1.101308 -0.1057741,0.08433 -0.0793,0.258733 -0.1236845,0.38652 -0.1723788,0.49629 -0.2787628,0.746463 -0.4789106,1.250831 -0.091528,0.237617 -0.1841521,0.474814 -0.2745827,0.712851 -0.118951,0.313109 -0.3252854,0.859594 -0.434322,1.194052 -0.039897,0.122378 -0.09132,0.243192 -0.1074974,0.370889 -0.00666,0.05258 -0.00724,0.175463 0.04105,0.15362 0.6508795,-0.294391 1.2551639,-0.682499 1.8827459,-1.023749 0.7423359,-1.202885 1.4307265,-2.437487 2.1207649,-3.670686 0.064422,-0.09889 0.1288441,-0.197782 0.1932662,-0.296674 0.028492,-0.0071 0.1109499,-0.03583 0.085476,-0.02123 -0.6248537,0.357984 -1.3214568,0.606433 -1.8864096,1.053002 -0.1920386,0.151797 -0.1965664,0.448384 -0.2959826,0.672075 -0.7871551,1.771135 -0.048474,0.0873 -0.9030849,2.04611 -0.8553015,1.8498 -1.5371402,3.767776 -2.1069072,5.722217 -0.3779938,1.45994 -0.6003902,1.738054 1.6451796,0.320657 0.1269406,-0.08012 0.1220912,-0.274373 0.177406,-0.413923 0.083937,-0.211758 0.1601631,-0.426492 0.2402447,-0.639738 0.5177581,-1.697543 0.9076254,-3.432616 1.2805639,-5.167017 0.1587208,-0.562406 0.1405285,-1.263413 0.5302463,-1.741525 0.047391,-0.05814 0.1090974,-0.102971 0.163646,-0.154456 0.2832168,-0.24416 0.6181983,-0.414106 0.8985403,-0.662442 0.2293367,-0.203154 0.3756455,-0.376663 0.5828925,-0.604168 0.290386,-0.303318 0.500098,-0.663435 0.700948,-1.02831 0.04902,-0.08904 0.104586,-0.175011 0.144779,-0.268371 0.02202,-0.05116 0.09297,-0.180904 0.04054,-0.162095 -0.629264,0.225759 -1.2242412,0.537584 -1.8363619,0.806376 -0.7248096,1.07373 -1.26117,2.250966 -1.7189478,3.458463 -0.1993738,0.557409 -0.3615201,1.127194 -0.482818,1.706546 -0.060855,0.29066 -0.1358903,0.587194 -0.088767,0.883371 0.6056146,-0.315847 1.2587607,-0.553751 1.8168438,-0.947542 0.1223201,-0.08631 0.093638,-0.28451 0.1336647,-0.428765 0.062499,-0.225247 0.1146705,-0.453238 0.1738148,-0.679389 0.2022633,-0.773397 0.4024886,-1.546261 0.5918895,-2.322955 0.048744,-0.196762 0.095533,-0.394019 0.1462325,-0.590286 0.05698,-0.220579 0.1425604,-0.434164 0.1844384,-0.658102 0.0069,-0.03698 0.03085,-0.126543 -0.0042,-0.112771 -1.789599,0.704109 -1.5538363,0.223031 -1.8586559,0.970006 -0.1004699,0.207734 -0.2157089,0.405662 -0.3340517,0.603333 -0.017723,0.0296 -0.172976,0.308342 -0.2153342,0.348212 -0.016036,0.01509 -0.043844,0.0042 -0.065765,0.0063 0.5767274,-0.298346 1.1792734,-0.551347 1.7301823,-0.895039 0.052771,-0.03292 0.00201,-0.124383 0.00353,-0.186562 0.00964,-0.393124 0.030787,-0.785889 0.04926,-1.178676 0.048078,-0.907227 0.376369,-0.928068 -1.6804154,0.737496 -0.084614,0.06852 -0.017832,0.217026 -0.027028,0.325515 -0.039843,0.470001 -0.029589,0.349234 -0.074427,0.822462 -0.1696489,1.205893 -0.5802332,1.219307 1.5706383,-0.119202 0.052918,-0.03293 0.014424,-0.123942 0.026366,-0.185115 0.019758,-0.101216 0.045771,-0.201111 0.068657,-0.301666 0.090504,-0.333415 0.2095953,-0.659214 0.3375005,-0.979961 0.06446,-0.161646 0.1199702,-0.347757 0.2605174,-0.457843 -0.034006,-0.05461 -0.074543,-0.105669 -0.102018,-0.163843 -0.00643,-0.01362 0.00492,-0.03009 0.00335,-0.04507 -0.020364,-0.193829 -0.02786,-0.371062 -0.021268,-0.567035 0,0 -1.6949866,0.858608 -1.6949866,0.858608 v 0 c -0.00394,0.281684 -4.979e-4,0.535203 0.095047,0.802507 0.015345,0.04293 -0.029125,-0.08641 -0.043687,-0.129609 -0.2265379,0.478665 -0.3771818,0.992493 -0.531045,1.497498 -0.026477,0.107514 -0.05589,0.214347 -0.079431,0.322541 -0.015547,0.07145 -0.1068809,0.239997 -0.03777,0.216101 1.8985383,-0.656444 1.667236,-0.35856 1.8196252,-1.57957 0.055635,-0.574593 0.022705,-0.254784 0.086055,-0.828036 0.01265,-0.114472 0.1512032,-0.363118 0.037728,-0.343439 -1.8356677,0.318335 -1.6770166,0.115765 -1.6986613,0.967227 -0.015484,0.396402 -0.041946,0.79211 -0.059677,1.188339 -0.0033,0.07385 -0.076753,0.241697 -0.00558,0.221713 0.607966,-0.170706 1.1701005,-0.475308 1.7551508,-0.712961 0.04149,-0.118075 0.00913,-0.03862 0.1118022,-0.213778 0.1552803,-0.264911 0.3006366,-0.535931 0.4675944,-0.793667 0.563041,-0.478436 0.292791,-0.232514 -1.6005566,0.67203 -0.016219,0.0077 0.00529,0.03607 0.00272,0.05386 -0.010979,0.07591 -0.02763,0.150902 -0.043197,0.226004 -0.028296,0.136516 -0.058858,0.272554 -0.088383,0.40881 -0.041851,0.193143 -0.083829,0.386258 -0.1257434,0.579387 -0.1806154,0.778361 -0.3691204,1.5526 -0.6010764,2.317681 -0.069155,0.228099 -0.1335139,0.458236 -0.2195974,0.6805 -0.053559,0.138287 -0.3431985,0.429496 -0.1982222,0.39829 0.577517,-0.12431 1.0838193,-0.470373 1.6257289,-0.705559 -0.063084,-0.237095 0.025836,-0.557451 0.070852,-0.786462 0.1112277,-0.565855 0.2662394,-1.122115 0.4588378,-1.665694 0.4128699,-1.073038 0.8985033,-2.247694 1.6267353,-3.150652 0.06989,-0.08666 0.157051,-0.157852 0.235576,-0.236778 -0.559303,0.236043 -1.130545,0.445588 -1.6779095,0.70813 -0.035821,0.01718 -0.018971,0.07766 -0.035592,0.113746 -0.040639,0.08822 -0.088154,0.173166 -0.1356115,0.257914 -0.1986588,0.354759 -0.4257278,0.690987 -0.709579,0.984367 -0.251942,0.259611 -0.3300066,0.356067 -0.6068884,0.580853 -0.2961552,0.240432 -0.6439503,0.417311 -0.9027556,0.702833 -0.048712,0.06416 -0.103742,0.123983 -0.1461367,0.192483 -0.3231037,0.522057 -0.3043911,1.185958 -0.4418864,1.763592 -0.3297548,1.733599 -0.7017712,3.46976 -1.2942171,5.134833 -0.095442,0.211905 -0.1745178,0.43197 -0.2863266,0.635713 -0.069111,0.125938 -0.392636,0.384933 -0.2537113,0.348371 0.5639905,-0.148415 1.089614,-0.42469 1.6019804,-0.70319 0.045735,-0.02486 -0.028892,-0.102358 -0.024514,-0.154229 C 6.2820215,30.44931 6.4166042,29.93138 6.4622746,29.739952 6.9830786,27.796761 7.6551303,25.900418 8.5067567,24.07566 8.9702932,23.058111 9.0023118,22.965476 9.4774006,22.003409 9.5937228,21.767853 10.091801,21.353681 9.8344665,21.3008 8.4227786,21.010703 8.4094088,21.447746 8.0469133,22.101924 7.3883251,23.355641 6.7119458,24.611437 5.866558,25.750777 c 0.5129297,-0.213466 1.0308652,-0.41528 1.5387891,-0.640398 0.012172,-0.0054 -0.028597,-0.01669 -0.026543,-0.02985 0.018389,-0.117766 0.051761,-0.232884 0.085421,-0.347225 0.1889227,-0.641751 0.4450745,-1.261775 0.6865805,-1.884613 0.4408047,-1.06183 0.1356478,-0.319972 0.5239862,-1.279155 0.053137,-0.131248 0.2976756,-0.427751 0.1603152,-0.393376 -1.8190732,0.455224 -1.5944776,0.38675 -1.5935604,0.857023 -0.046479,0.774058 -0.1106873,1.552367 -0.2966226,2.307266 -0.2305507,0.812157 -0.1637118,0.350808 1.6528247,-0.488236 0.030757,-0.01421 0.023516,-0.06358 0.036952,-0.09468 0.037018,-0.08569 0.074551,-0.171181 0.1143758,-0.255599 0.064244,-0.136181 0.1308828,-0.271227 0.1977929,-0.406118 0.095008,-0.191536 0.1919674,-0.382097 0.287951,-0.573146 1.1847546,-2.226954 2.4540266,-4.408009 3.8309706,-6.522233 0.226657,-0.351442 0.449368,-0.705461 0.67997,-1.054327 0.163154,-0.246827 0.789058,-0.664217 0.501191,-0.732591 -1.25333,-0.297694 -1.336458,0.229726 -1.659291,0.827888 -0.08686,0.160947 -0.17579,0.320773 -0.263684,0.481159 -0.313668,0.535268 -0.625616,1.070814 -0.965081,1.590344 -0.06304,0.09649 -0.305137,0.317728 -0.194333,0.285997 1.666729,-0.477315 1.497615,-0.171814 1.775737,-0.917025 0.523649,-1.112586 1.060235,-2.222369 1.507953,-3.367975 -0.576646,0.217873 -1.161954,0.414071 -1.729939,0.653619 -0.03504,0.01478 -0.03876,0.0655 -0.05578,0.09951 -0.04172,0.08338 -0.08172,0.167646 -0.120356,0.252502 -0.190928,0.4193 -0.364444,0.846588 -0.568692,1.259847 -0.06594,0.138392 -0.134655,0.275499 -0.197833,0.415176 -0.04697,0.10385 -0.243029,0.34317 -0.132532,0.31521 1.730044,-0.437771 1.565328,-0.458551 2.217763,-1.488544 0.07574,-0.110183 0.149376,-0.221834 0.227205,-0.330548 0.06137,-0.08573 0.291657,-0.281696 0.190305,-0.252645 -1.846795,0.529354 -1.471222,0.365084 -2.114408,1.478215 -0.288785,0.474116 -0.621597,0.944903 -0.856476,1.449243 -0.0538,0.115524 -0.252732,0.386221 -0.127967,0.360261 1.407797,-0.292916 1.357235,-0.278354 1.867843,-0.835516 0.838668,-1.127457 1.609755,-2.303378 2.438221,-3.43833 -0.555997,0.206659 -1.125456,0.380194 -1.667993,0.619977 -0.07357,0.03252 -0.10332,0.123322 -0.154403,0.18546 -0.130792,0.159094 -0.262451,0.317496 -0.39122,0.478232 -0.685154,0.855246 -1.350674,1.726823 -2.075857,2.549353 -0.513415,0.590636 -1.03815,1.208415 -1.5779944,1.776669 -0.201702,0.212316 -0.9155067,0.610219 -0.6228072,0.619652 0.4684493,0.0151 0.8286809,-0.447292 1.2722366,-0.598722 0.05453,-0.01862 -0.06307,0.21098 -0.02104,0.171565 0.07195,-0.06748 0.08293,-0.179002 0.124398,-0.268502 0.764745,-1.170486 1.558629,-2.321898 2.447165,-3.403172 -0.548891,0.209339 -1.104658,0.401471 -1.646673,0.628018 -0.02443,0.01021 -0.01876,0.04966 -0.03093,0.07318 -0.04684,0.09047 -0.09701,0.179176 -0.14598,0.268511 -0.312403,0.569913 -0.622194,1.141198 -0.922447,1.71766 -0.3912643,0.776143 -0.7660254,1.566478 -1.199587,2.320368 -0.1148153,0.199644 -0.2343081,0.396978 -0.3646414,0.586855 -0.083404,0.121509 -0.4189984,0.379514 -0.2755303,0.345787 0.5727981,-0.134656 1.0900218,-0.44359 1.6350327,-0.665385 0.1139929,-0.378741 0.376427,-0.744564 0.58787,-1.070802 0.474206,-0.731658 0.99671,-1.4298 1.510132,-2.133928 0.592472,-0.794065 1.183973,-1.588496 1.766043,-2.390234 0.142695,-0.196547 0.279561,-0.39742 0.427125,-0.590339 0.08927,-0.116703 0.425272,-0.374498 0.282952,-0.337983 -0.576383,0.14788 -1.098161,0.458676 -1.647242,0.688014 -0.05983,0.320249 -0.02216,0.161637 -0.174241,0.620322 -0.224552,0.677268 -0.454437,1.364735 -0.829674,1.975878 0.499107,-0.244159 0.982323,-0.523915 1.497322,-0.732478 0.04172,-0.0169 -0.02129,0.178662 -0.01882,0.133718 0.01495,-0.271723 0.04879,-0.300542 0.176516,-0.6099 0.166453,-0.40315 0.333839,-0.742892 0.521609,-1.140339 0.357013,-0.711092 0.729603,-1.413505 1.092103,-2.121761 0.111206,-0.217277 0.438932,-0.860376 0.550313,-1.122654 0.04802,-0.113077 0.08263,-0.23139 0.123952,-0.347085 -0.574272,0.236785 -1.162378,0.442466 -1.722816,0.710356 -0.04848,0.02318 -0.0478,0.09635 -0.06854,0.145917 -0.0458,0.109424 -0.08812,0.220272 -0.130994,0.330874 -0.200379,0.516953 -0.39006,1.038697 -0.628748,1.539874 -0.08461,0.162139 -0.166001,0.325999 -0.253829,0.486418 -0.07012,0.128073 -0.155104,0.247991 -0.219891,0.378841 -0.04258,0.086 -0.193315,0.296165 -0.101129,0.269526 0.972411,-0.281002 1.460813,-0.550253 2.163013,-1.018007 1.169161,-0.76038 2.316286,-1.563373 3.371527,-2.477195 0.248204,-0.235595 1.153612,-1.026444 1.269267,-1.374104 0.07275,-0.218695 0.03466,-0.4289472 -0.218556,-0.3770116 -0.131509,0.026973 -0.247524,0.1040249 -0.371285,0.1560376 -0.289405,0.159576 -1.00549,0.556642 -1.259801,0.685952 -1.307672,0.664916 -2.669341,1.221995 -4.068615,1.662675 -0.599121,0.163978 -0.961776,0.29066 -1.556477,0.366243 -0.125647,0.01597 -0.253458,0.0022 -0.379816,0.01093 -0.03469,0.0024 -0.07473,0.04396 -0.1019,0.02226 -0.02152,-0.01719 0.08747,-0.06636 0.06338,-0.05302 -0.475404,0.263302 -0.945701,0.53572 -1.418551,0.803579 1.247389,-0.575345 2.722637,-0.593514 4.040378,-0.933365 4.463118,-0.943245 8.890165,-2.060454 13.388386,-2.8348558 0.981158,-0.1680488 1.96068,-0.3459468 2.943474,-0.5041464 2.046713,-0.329458 2.9734,-0.4528529 4.964496,-0.6777992 0.527195,-0.05956 1.055392,-0.109954 1.583409,-0.1617197 0.279501,-0.027402 0.589039,0.052036 0.839108,-0.075779 0.618378,-0.3160673 1.127199,-0.811539 1.690801,-1.2173086 C 38.967071,7.026813 38.379126,7.0289151 37.785944,7.030459 c -1.045985,0.00272 -2.091031,0.05392 -3.136773,0.069638 -0.283759,0.0057 -0.567513,0.011698 -0.851279,0.017093 -0.175074,0.00333 -0.369055,-0.070097 -0.525239,0.00908 -0.610901,0.3096849 -1.145017,0.7519003 -1.717526,1.1278505 0.04801,-0.017811 0.09443,-0.040744 0.144039,-0.053433 0.119239,-0.030497 0.967857,-0.2024337 0.994853,-0.2079658 1.117085,-0.2099325 0.269524,-0.055111 1.405528,-0.250434 0.206305,-0.035472 0.412804,-0.06994 0.618524,-0.108662 0.149096,-0.028064 0.311309,-0.021493 0.445814,-0.091676 0.634608,-0.331125 1.264056,-0.6812458 1.842796,-1.1024724 0.05658,-0.04118 -0.03129,-0.1364144 -0.04693,-0.2046216 -0.05974,-0.02761 -0.115088,-0.068084 -0.17923,-0.082832 C 36.552097,6.0995 36.120082,6.1009593 35.911885,6.10614 c -0.794199,0.019762 -1.583641,0.1204166 -2.373904,0.1921748 -0.641942,0.075758 -1.129675,0.1212826 -1.759791,0.2398677 -0.206275,0.03882 -0.426417,0.046414 -0.61362,0.1413425 -0.672321,0.3409259 -1.337428,0.7079081 -1.943933,1.155564 -0.07058,0.052093 -0.03016,0.1924816 0.02315,0.2621434 0.05687,0.074306 0.172973,0.071425 0.259459,0.1071374 1.318447,0.131102 2.647402,0.025936 3.968927,0.1200381 0.569048,-0.3717736 1.143734,-0.735057 1.707144,-1.1153207 0.03185,-0.0215 -0.0712,0.031393 -0.109246,0.036847 -0.112668,0.016153 -0.226723,0.020847 -0.340342,0.02761 -0.595847,0.035467 -1.193677,0.044266 -1.790148,0.019826 -0.206405,-0.00809 -0.412906,-0.014034 -0.619216,-0.02427 -0.144871,-0.00719 -0.304357,-0.092561 -0.434246,-0.028 -0.610091,0.3032443 -1.152607,0.7268756 -1.722609,1.1000596 -0.0419,0.027435 0.08767,-0.052765 0.13692,-0.061898 0.290519,-0.053877 0.906507,-0.069512 1.152981,-0.081158 0.798161,-0.00843 0.712261,-0.025102 1.488169,0.033418 0.107082,0.00808 0.846478,0.04187 0.989679,0.1507362 0.02959,0.022498 0.03694,0.064524 0.0554,0.096785 0.04819,0.096159 0.09183,0.2101511 0.18716,0.273915 0.373186,0.2496201 1.047608,-0.1333184 1.412325,-0.2218233 0.97705,-0.3884608 1.204036,-0.4511669 2.426815,-1.3329256 0.08583,-0.061896 0.09663,-0.209954 0.06463,-0.3108233 -0.04894,-0.1542479 -0.469267,-0.1145014 -0.679502,-0.1021972 -0.255659,0.014963 -0.510093,0.046326 -0.76514,0.06949 -1.155716,0.1369622 -2.308436,0.292677 -3.461145,0.4531274 -0.391209,0.054454 -0.781814,0.11323 -1.173185,0.1665149 -0.29807,0.040582 -0.620641,-0.00808 -0.895094,0.11508 -0.709333,0.3183135 -1.338355,0.7916505 -2.007533,1.1874757 0.04368,0.00828 0.08665,0.027459 0.131024,0.024832 0.220798,-0.013071 0.439543,-0.050079 0.659674,-0.071639 0.369398,-0.03618 0.738854,-0.072193 1.108855,-0.1015746 1.378709,-0.1094828 2.76336,-0.194196 4.146767,-0.1268741 0.341919,0.032477 0.684395,0.05956 1.025759,0.09743 0.154614,0.017153 0.315611,0.12087 0.461766,0.067595 0.552628,-0.2014396 1.051654,-0.5276172 1.568844,-0.8077771 0.172965,-0.093694 -0.350555,0.1809706 -0.535489,0.2480125 -0.450285,0.163236 -1.581418,0.4540634 -1.995232,0.5649882 -2.031733,0.5060433 -0.303221,0.077555 -2.15014,0.5303029 -0.210945,0.051711 -0.446959,0.043526 -0.632528,0.1563797 -0.586082,0.3564236 -1.142615,0.7683739 -1.648977,1.2311109 -0.259336,0.236994 1.944201,-0.6329148 1.036867,-0.188936 1.048472,-0.259569 0.980019,-0.236607 2.083289,-0.5369456 1.73496,-0.4723008 3.533615,-0.972564 4.901578,-2.2271261 0.03914,-0.1122573 0.121543,-0.2179581 0.117422,-0.336772 -0.0088,-0.2536733 -0.301042,-0.3565511 -0.48321,-0.4083176 -0.722717,-0.205373 -1.498895,-0.091721 -2.231575,-0.055056 -2.940886,0.3479261 -5.858746,0.8680771 -8.740899,1.5505341 -0.345257,0.081836 -0.68971,0.1671362 -1.03577,0.2455078 -0.204474,0.046307 -0.434469,0.02308 -0.615692,0.1284965 -0.595743,0.3465387 -1.135543,0.7827536 -1.679161,1.2064013 -0.07601,0.059233 0.178323,-0.073175 0.268524,-0.1070776 C 25.548416,9.600756 25.560774,9.6059696 26.340702,9.3460566 26.408212,9.3236916 28.212836,8.7285 28.288278,8.6931605 29.091088,8.3170957 29.870215,7.8916404 30.646756,7.4639589 30.965114,7.2886229 31.322889,7.1059294 31.40179,6.709528 31.42443,6.5957871 31.36282,6.4808815 31.34333,6.3665582 31.25918,6.2904392 31.190034,6.1933528 31.090866,6.1382012 30.618768,5.8756489 30.028914,6.0134947 29.54453,6.1348512 28.762347,6.3308114 28.601583,6.4201318 27.815327,6.7180129 27.097583,7.0271285 26.430354,7.2968545 25.739622,7.6679087 24.89032,8.1241459 24.053132,8.6026841 23.215683,9.0803304 23.091,9.1514444 21.951318,9.8169305 21.764061,10.013059 c -0.104622,0.109578 -0.130696,0.273369 -0.196044,0.410054 0.05415,0.02935 0.101018,0.09242 0.162456,0.08804 0.178371,-0.0127 1.132062,-0.37476 1.168425,-0.388101 1.301473,-0.4774859 2.481844,-0.9706003 3.637843,-1.814587 0.09988,-0.1095571 0.239319,-0.1932474 0.299651,-0.3286712 0.04423,-0.099293 0.04386,-0.2304674 -0.008,-0.3260058 -0.05221,-0.096203 -0.167493,-0.1487588 -0.270202,-0.1865969 -0.596027,-0.2195773 -1.282354,-0.020623 -1.87932,0.04259 -0.655697,0.1203992 -1.311137,0.2421988 -1.966839,0.3625736 -0.32841,0.06029 -0.657414,0.1173638 -0.985487,0.1794552 -0.257941,0.048818 -0.536568,0.038147 -0.772502,0.1532627 -0.697417,0.3402804 -1.359075,0.7548108 -1.996296,1.1976764 -0.04414,0.030678 0.08206,0.069463 0.123087,0.1041945 1.298069,-0.1273442 -0.270399,0.032554 1.613521,-0.1904285 2.058633,-0.2436612 4.123197,-0.4366707 6.184399,-0.6565462 0.326835,-0.034777 0.661953,-0.023362 0.980503,-0.1043323 0.129085,-0.032811 0.213001,-0.1609857 0.327953,-0.2282557 0.506263,-0.2962651 1.043296,-0.5407983 1.534387,-0.8615858 0.181502,-0.1185599 -0.400354,0.1664884 -0.599921,0.2511793 -0.322386,0.1368119 -0.643951,0.2755494 -0.965927,0.4133241 -0.410026,0.1735134 -0.820052,0.3470268 -1.230078,0.5205403 -1.400367,0.5777928 -1.235427,0.529926 -2.627083,1.0273115 -1.53017,0.5468908 -2.174455,0.6150208 -3.703337,1.6392548 -0.06622,0.04436 0.02804,0.156924 0.04207,0.235386 0.488303,0.105765 -0.287964,-0.06039 0.409371,0.07921 0.07906,0.01583 0.15565,0.04733 0.236112,0.05259 0.03106,0.002 0.06078,-0.0162 0.08793,-0.03142 0.526383,-0.295027 1.046422,-0.601248 1.571472,-0.898641 0.06743,-0.03819 -0.132354,0.08066 -0.198531,0.120996 -0.422435,0.175312 -1.055848,0.360681 -1.348384,-0.140534 -0.04605,-0.07891 -0.0559,-0.173967 -0.08385,-0.26095 9.56e-4,-0.102161 -0.004,-0.204548 0.0029,-0.306483 0.0067,-0.09912 0.135019,-0.3153197 0.03765,-0.2956321 -2.488793,0.5032201 -1.575361,0.044106 -1.684356,0.7873611 -0.03769,0.257004 -0.110463,0.544606 -0.168298,0.794778 -0.04593,0.150074 -0.0821,0.303492 -0.137797,0.450223 -0.05129,0.135128 -0.323063,0.426694 -0.182422,0.393366 0.517808,-0.122708 0.952163,-0.476453 1.439075,-0.691161 0.05504,-0.02427 -0.07829,0.128855 -0.13729,0.117127 -0.176292,-0.03504 -0.237773,-0.554994 -0.244129,-0.58131 -0.03552,-0.57693 -0.03404,-1.136657 0.04542,-1.7113947 0.02287,-0.1654203 0.257248,-0.515581 0.09186,-0.4924878 -1.3322,0.1860142 -1.737989,1.2523535 -1.43403,0.5292381 0.05239,0.049687 0.113889,0.091266 0.157171,0.1490604 0.07196,0.096088 0.126455,0.2041643 0.185589,0.3086353 0.307301,0.5429037 0.545044,1.1217107 0.868398,1.6556617 0.621816,-0.237859 1.254448,-0.449171 1.865449,-0.713578 0.0857,-0.03709 0.214744,-0.404824 0.220303,-0.416057 0.04729,-0.09556 0.257776,-0.314521 0.157458,-0.278413 -1.169096,0.420793 -1.865632,1.175825 -1.327339,0.614252 0.05203,0.02283 0.113505,0.03087 0.156089,0.06849 0.284538,0.251335 0.341222,0.804619 0.206837,1.138791 -0.04662,0.115931 -0.13545,0.210019 -0.203174,0.315029 0.426905,-0.22073 0.87149,-0.410189 1.280716,-0.662188 0.125695,-0.0774 -0.275393,0.11845 -0.422236,0.133539 -0.179821,0.01848 -0.363739,-1.32e-4 -0.541202,-0.03454 -0.707679,-0.137205 -1.329244,-0.519649 -1.902576,-0.936723 -0.167847,-0.162744 -0.35169,-0.310469 -0.503539,-0.488232 -0.501282,-0.5868261 -0.7593,-1.3488773 -0.635366,-2.1140188 0,0 -1.715801,0.8475359 -1.715801,0.8475359 z" /><path
     style="fill:#ff0000"
     id="path39"
     d="m 8.2024061,29.340921 c -0.3095332,0.444833 -0.5502718,0.933211 -0.8349054,1.393932 -0.2148932,0.349638 -0.4101532,0.708728 -0.5663357,1.0884 -0.1275057,0.26542 -0.2485053,0.542474 -0.3079221,0.83186 -0.059474,0.216188 -0.035255,0.443367 -0.064272,0.662492 -0.011872,0.08965 -0.041983,0.175935 -0.062232,0.264076 -0.03955,0.10731 -0.00139,0.09487 -0.083948,0.08632 1.1420216,-0.599551 2.3008866,-1.168059 3.4260648,-1.798654 0.00137,-7.65e-4 -0.016479,-0.295481 -0.018731,-0.401698 -4.007e-4,-0.174455 -0.0051,-0.348847 -0.00762,-0.523282 0,0 -3.3880367,1.726256 -3.3880367,1.726256 v 0 c -0.00258,0.180476 -0.00877,0.361143 -0.00119,0.54158 0.00451,0.106273 0.0073,0.206872 0.017691,0.312813 0.00501,0.05107 -0.028223,0.172202 0.01925,0.152727 6.683533,-2.741799 3.2673272,-0.288349 3.4747251,-1.767823 0.044987,-0.298005 0.041428,-0.60465 0.1382353,-0.893552 0.1011376,-0.26452 0.2054466,-0.527288 0.3274086,-0.783051 0.16739,-0.353326 0.350178,-0.697562 0.55358,-1.031867 0.269033,-0.468546 0.522145,-0.955558 0.897711,-1.350104 0,0 -3.5194729,1.489571 -3.5194729,1.489571 z" /><path
     style="fill:#ff0000"
     id="path41"
     d="m 6.2307063,28.669782 c -0.3088931,0.362596 -0.6562212,0.695102 -0.9463764,1.073648 -0.074472,0.09716 -0.3111525,0.45487 -0.3852832,0.565876 -0.2859,0.416579 -0.3646112,0.901765 -0.4046198,1.393337 -0.01742,0.468796 0.065847,0.933898 0.142641,1.394459 0.080233,0.570665 0.2034792,1.133804 0.2866322,1.704056 0.074211,0.824592 0.1180337,1.648116 0.2413884,2.467735 0.093823,0.756283 0.2564911,1.504598 0.5120367,2.222715 0.1759053,0.49314 0.3507778,0.986863 0.5792559,1.458501 0.1311896,0.319803 0.3284339,0.608013 0.4568646,0.92826 0.2481393,0.457327 0.3416172,0.957174 0.4367375,1.462773 0.1702361,1.064346 0.1970812,2.144336 0.2145917,3.219942 0.044329,0.836201 0.1494983,1.668959 0.3894665,2.472348 0.1425145,0.542424 0.4405521,1.001682 0.7757037,1.441483 0.3782723,0.467087 0.8043348,0.892359 1.2277976,1.31795 0.4397183,0.419783 0.8746113,0.846008 1.2877723,1.292095 0.307783,0.354171 0.554562,0.768091 0.957494,1.023397 1.234141,0.656027 3.402613,-0.669442 3.489565,-2.058227 0,0 -3.486575,1.602269 -3.486575,1.602269 v 0 c -1.318325,0.568176 3.535473,-3.143516 3.152328,-1.720626 -0.0247,0.01072 -0.04727,0.03431 -0.07411,0.03217 -0.252736,-0.02009 -0.640537,-0.665685 -0.815609,-0.835023 -0.412348,-0.453748 -0.850166,-0.884075 -1.299715,-1.300873 -0.408159,-0.417261 -0.820156,-0.832632 -1.18696,-1.287525 -0.308721,-0.400711 -0.580834,-0.823114 -0.727805,-1.312751 -0.235239,-0.763035 -0.354601,-1.55653 -0.399529,-2.353133 -0.03602,-1.095779 -0.07748,-2.192948 -0.205881,-3.282568 -0.07724,-0.542618 -0.156559,-1.086509 -0.404189,-1.582851 C 9.9016833,39.6873 9.7022055,39.395832 9.5552435,39.075337 9.3295305,38.620105 9.1535274,38.142167 8.9720967,37.668123 8.7255456,36.97683 8.5476962,36.262746 8.4561736,35.533692 8.3483242,34.706638 8.3246384,33.876268 8.2522404,33.046061 8.1737795,32.470184 8.0569346,31.900162 7.9856863,31.323167 7.918793,30.890073 7.8511178,30.449081 7.8999282,30.010503 7.9541434,29.570525 8.0846228,29.164389 8.35112,28.802688 8.7533038,28.222397 9.2254602,27.690606 9.764725,27.23343 c 0,0 -3.5340187,1.436352 -3.5340187,1.436352 z" /><path
     style="fill:#ff0000"
     id="path43"
     d="m 8.29879,43.857043 c 0.4445058,1.013223 0.8323838,2.050119 1.232568,3.081353 0.4676053,1.16305 0.993696,2.302496 1.638655,3.378145 0.360733,0.586684 0.773368,1.140022 1.182875,1.693256 0.216269,0.253811 0.418469,0.511819 0.491425,0.84168 0.01377,0.515724 0.203323,0.984014 0.410863,1.448986 0.370912,0.770505 0.813972,1.502342 1.278213,2.219273 0.450543,0.675342 0.988168,1.285008 1.466407,1.939854 0.521456,0.701269 0.983092,1.448174 1.368517,2.232384 0.331917,0.741609 0.652531,1.487458 1.012397,2.216148 0.285583,0.470885 0.587593,0.925929 0.835969,1.418135 0,0 3.249358,-1.857012 3.249358,-1.857012 v 0 c -0.258201,-0.48267 -0.554246,-0.939291 -0.837874,-1.406985 -0.35694,-0.731997 -0.677355,-1.479135 -1.011116,-2.221644 -0.41074,-0.793806 -0.887323,-1.551849 -1.414662,-2.273679 -0.467465,-0.655135 -0.972741,-1.281772 -1.433684,-1.941688 -0.465343,-0.686902 -0.926002,-1.383233 -1.250011,-2.150682 -0.114672,-0.309565 -0.146918,-0.359105 -0.212444,-0.666735 -0.044,-0.206572 -0.04103,-0.413744 -0.0713,-0.621444 -0.008,-0.05477 -0.0212,-0.108641 -0.03179,-0.162962 -0.118527,-0.367632 -0.33219,-0.672886 -0.601022,-0.949739 -0.429462,-0.524015 -0.836261,-1.069484 -1.221844,-1.626381 -0.676002,-1.028727 -1.231286,-2.127543 -1.670001,-3.278554 -0.395246,-1.036896 -0.779319,-2.081481 -1.065051,-3.154741 0,0 -3.346442,1.843032 -3.346442,1.843032 z" /><path
     style="fill:#ff0000"
     id="path45"
     d="m 19.860075,63.869047 c 0.46889,0.458244 0.869008,0.981922 1.28967,1.483711 0.502956,0.602339 1.040368,1.176367 1.521533,1.796464 0.363991,0.485413 0.802815,0.904349 1.242353,1.319552 0.453884,0.437264 0.94821,0.828273 1.443054,1.217455 0.75193,0.570477 1.538805,1.092901 2.284315,1.671921 0.687047,0.544386 1.308717,1.16303 1.942469,1.766708 0.517391,0.512906 1.021667,1.044072 1.574634,1.519172 0.371299,0.306916 0.748778,0.605737 1.102139,0.933469 0.375706,0.381234 0.677969,0.823737 0.958194,1.277374 0.350578,0.580228 0.769708,1.114969 1.204347,1.6338 0.426011,0.532896 0.933834,0.984278 1.450601,1.425247 0.519967,0.423302 1.039941,0.845869 1.577815,1.24637 0.480166,0.351291 0.935736,0.734693 1.395274,1.112249 0.445975,0.373087 0.907911,0.727737 1.34033,1.116741 0.442753,0.385091 0.835929,0.82235 1.270136,1.215832 0.43081,0.42608 0.917342,0.782983 1.423462,1.113397 0.51654,0.325499 1.028972,0.656995 1.56123,0.956389 0.550575,0.277549 1.0807,0.589133 1.595015,0.928765 0.482833,0.309325 0.922977,0.672493 1.322383,1.082693 0.294924,0.295011 0.615203,0.57195 0.835597,0.929982 0.09272,0.238247 0.222876,0.453504 0.357522,0.668937 0.197052,0.417626 0.338043,0.861749 0.501949,1.294015 0.205177,0.664712 0.65091,1.191323 1.091548,1.712247 0.172955,0.18608 0.271087,0.396438 0.346423,0.63389 0,0 3.313408,-1.837347 3.313408,-1.837347 v 0 C 53.695836,91.817154 53.57888,91.556987 53.370694,91.343812 52.937134,90.868546 52.529158,90.381294 52.35644,89.745568 52.188695,89.286609 52.047423,88.816898 51.862858,88.365123 51.733182,88.144414 51.596227,87.928838 51.48933,87.694239 51.242399,87.319108 50.911229,87.018654 50.583974,86.714304 50.164586,86.290025 49.716345,85.89462 49.213406,85.570519 48.695512,85.21922 48.159179,84.894627 47.59721,84.618075 47.067261,84.327906 46.566021,83.993559 46.048831,83.68178 45.55367,83.370454 45.081854,83.023914 44.662874,82.614081 44.220284,82.230475 43.835943,81.784055 43.392214,81.400687 42.955051,81.010732 42.502672,80.638685 42.04902,80.268609 41.58634,79.882036 41.10834,79.512989 40.632699,79.142705 40.094981,78.756419 39.576704,78.347234 39.065761,77.926374 38.570353,77.489682 38.049079,77.078471 37.644889,76.548894 37.212826,76.052729 36.809231,75.528702 36.479285,74.95817 36.180794,74.480282 35.875774,74.00418 35.491747,73.588714 35.139799,73.237949 34.741399,72.946925 34.349263,72.643179 33.774926,72.203235 33.28169,71.662244 32.76002,71.163017 32.104164,70.564245 31.48743,69.920594 30.782861,69.37677 c -0.744789,-0.570004 -1.520007,-1.099606 -2.253696,-1.683898 -0.480011,-0.388414 -0.95388,-0.784027 -1.3942,-1.217586 -0.440151,-0.39095 -0.880161,-0.783436 -1.244763,-1.248845 -0.498106,-0.61091 -1.023883,-1.198362 -1.533023,-1.80003 -0.42403,-0.50902 -0.829559,-1.032622 -1.235469,-1.556097 0,0 -3.261635,1.998733 -3.261635,1.998733 z" /><path
     style="fill:#ff0000"
     id="path47"
     d="m 51.19192,93.517607 c 0.636538,0.507585 1.259555,1.032378 1.862345,1.579585 0.581145,0.528957 1.14978,1.071586 1.719693,1.61261 0.426244,0.435423 0.864002,0.859411 1.29684,1.288247 0.328315,0.342922 0.684846,0.656241 1.034102,0.977274 0.434013,0.365885 0.888591,0.706394 1.334316,1.057817 0.4157,0.34629 0.824198,0.70089 1.221842,1.06776 0.232003,0.22285 0.478899,0.42968 0.705851,0.65778 0.195553,0.20722 0.426286,0.36001 0.691296,0.46109 1.498902,0.42503 1.521456,-0.49699 3.774021,-1.83295 0.04236,-0.0251 0.04156,-0.0895 0.06645,-0.13197 0.02563,-0.0437 0.05654,-0.0842 0.08481,-0.12626 0.238181,-0.33694 0.472833,-0.676806 0.70467,-1.018412 0.269873,-0.393021 0.559535,-0.771324 0.865281,-1.137345 0.03925,-0.0554 0.07498,-0.11348 0.117749,-0.166215 0.233339,-0.287707 0.03235,0.0106 0.245389,-0.287791 0.111648,-0.156376 0.214974,-0.316223 0.331446,-0.469507 0.133479,-0.130068 0.210429,-0.295912 0.302461,-0.453478 0.02179,-0.03731 0.05465,-0.06816 0.07221,-0.107638 0.01157,-0.02602 0.03932,-0.09574 0.0132,-0.0844 -1.194205,0.518809 -2.368836,1.081556 -3.553255,1.622335 -0.147953,0.20055 -0.27082,0.418575 -0.399562,0.631563 0,0 3.449187,-1.515059 3.449187,-1.515059 v 0 c 0.151292,-0.219462 0.304351,-0.436864 0.484604,-0.634141 -3.746187,1.63809 -2.755968,0.54751 -3.863043,2.049795 -0.221859,0.30946 -0.458382,0.606375 -0.693481,0.90582 -0.292208,0.377335 -0.573803,0.762103 -0.84354,1.155893 -0.24354,0.33886 -0.475127,0.68776 -0.748625,1.00373 -0.03433,0.0336 -0.06372,0.0731 -0.102981,0.10084 -0.03246,0.0229 -0.143369,0.0681 -0.108817,0.0485 1.071902,-0.60763 2.141706,-1.21914 3.221326,-1.812949 0.02746,-0.0151 -0.03298,0.05553 -0.05869,0.07344 -0.06887,0.048 -0.127993,0.0277 -0.204523,0.0211 -0.231941,-0.0353 -0.41536,-0.12163 -0.582583,-0.290828 -0.230389,-0.241315 -0.501257,-0.434826 -0.745417,-0.661616 -0.412494,-0.366793 -0.841065,-0.714411 -1.258585,-1.075363 -0.436665,-0.343835 -0.867037,-0.695691 -1.297763,-1.046865 -0.34767,-0.319297 -0.700254,-0.632447 -1.039966,-0.960453 -0.442467,-0.424679 -0.88953,-0.84483 -1.317645,-1.28413 -0.581105,-0.538069 -1.170041,-1.068217 -1.761167,-1.594976 -0.599974,-0.539894 -1.228564,-1.056642 -1.773245,-1.652896 0,0 -3.246204,2.029985 -3.246204,2.029985 z" /><path
     style="fill:#ff0000"
     id="path49"
     d="m 64.681345,99.080179 c 0.113245,-0.248938 0.20549,-0.510987 0.35755,-0.740621 0.1837,-0.277418 0.420559,-0.532412 0.624185,-0.795766 0.408207,-0.441494 0.842721,-0.861782 1.290191,-1.263822 0.247573,-0.186203 0.494146,-0.373344 0.734386,-0.568933 0,0 -3.527382,1.416443 -3.527382,1.416443 v 0 c -0.238624,0.189166 -0.481435,0.374188 -0.701387,0.585419 -0.434781,0.419735 -0.882964,0.831097 -1.249314,1.314311 -0.397094,0.519765 -0.766017,1.0543 -0.986262,1.67699 0,0 3.458033,-1.624021 3.458033,-1.624021 z" /><path
     style="fill:#ff0000"
     id="path51"
     d="m 64.586757,98.241533 c 0.23645,-0.459911 0.615777,-0.844745 1.00342,-1.182 0.42019,-0.379675 0.894731,-0.690522 1.346216,-1.030269 0.207412,-0.148484 0.427042,-0.290218 0.611346,-0.468361 0.182588,-0.176484 0.337968,-0.366082 0.532255,-0.532 0.155047,-0.157544 0.09431,-0.07529 0.191004,-0.24002 0,0 -3.521617,1.510006 -3.521617,1.510006 v 0 c -0.108797,0.09582 -0.04722,0.03987 -0.182897,0.169829 -0.35406,0.356669 -0.729341,0.681464 -1.150027,0.959257 -0.454306,0.335649 -0.910228,0.671736 -1.316497,1.066044 -0.385687,0.39601 -0.740687,0.819823 -1.009033,1.305823 0,0 3.49583,-1.558309 3.49583,-1.558309 z" /><path
     style="fill:#ff0000"
     id="path53"
     d="m 64.580425,97.057168 c 0.279883,-0.51728 0.734562,-0.877347 1.19235,-1.226412 1.270186,-0.724082 -0.148844,0.08396 -2.773743,1.616535 -0.07623,0.04451 0.153161,-0.08788 0.231307,-0.128935 0.239973,-0.126061 0.490102,-0.222616 0.742226,-0.320928 0.533204,-0.205675 1.075903,-0.384394 1.609948,-0.587886 1.686067,-0.811313 3.485969,-1.688744 4.841139,-3.031899 0.463095,-0.475852 0.918881,-0.955718 1.349875,-1.460913 0.348675,-0.441904 0.701144,-0.879861 1.047525,-1.323626 0,0 -3.488576,1.494823 -3.488576,1.494823 v 0 c -0.340528,0.433713 -0.665455,0.879712 -1.029981,1.294291 -0.434163,0.486431 -0.876399,0.966325 -1.348967,1.416026 -0.276074,0.2355 -0.554263,0.466195 -0.855891,0.669018 -0.0888,0.05971 -0.365352,0.222828 -0.272304,0.169992 1.925262,-1.093229 4.050095,-2.330283 2.724297,-1.558872 -0.527935,0.216064 -1.068921,0.393412 -1.602328,0.592558 -1.683077,0.587881 -3.269822,1.467032 -4.681172,2.567727 -0.467764,0.394898 -0.87513,0.85335 -1.168871,1.394395 0,0 3.483166,-1.575894 3.483166,-1.575894 z" /><path
     style="fill:#ff0000"
     id="path55"
     d="m 68.205575,94.085849 c 0.370058,-0.592557 0.812824,-1.125407 1.255222,-1.664195 0.334433,-0.378439 0.64956,-0.772101 0.973814,-1.158991 0.369461,-0.458394 0.77304,-0.896094 1.215443,-1.285722 0.253729,-0.219592 0.473789,-0.489671 0.753297,-0.67952 0.06696,-0.04548 0.28285,-0.157572 0.212969,-0.116709 -0.987287,0.577314 -1.976843,1.150739 -2.965264,1.726109 0.10998,-0.06327 0.220324,-0.125912 0.329942,-0.189808 1.194203,-0.696088 2.392504,-1.385221 3.581515,-2.090141 0.306554,-0.181744 0.59062,-0.399256 0.892753,-0.588259 0.334707,-0.20938 0.601336,-0.359989 0.941643,-0.55701 0.713468,-0.420064 1.420385,-0.851759 2.099846,-1.325537 0.701653,-0.51245 1.328337,-1.113304 1.940788,-1.72671 0.338216,-0.391146 0.717001,-0.758047 1.008677,-1.187315 0.04266,-0.06279 0.229265,-0.375177 0.275628,-0.452338 0.170129,-0.287237 0.219031,-0.621084 0.344758,-0.926136 -0.127242,-0.255538 -0.251726,-0.475458 -0.567589,-0.296703 -1.467516,0.830507 -2.83204,1.650053 -4.249882,2.495146 -1.265121,0.7767 -2.385991,1.754593 -3.448966,2.784039 -0.689282,0.742648 -1.479155,1.470763 -1.967226,2.370214 0.01342,0.0736 -0.0137,0.168974 0.04025,0.220804 0.108222,0.103969 0.267407,0.270924 0.401539,0.203619 3.318909,-1.665369 2.674348,-1.279365 4.018379,-2.678612 0.627961,-0.653758 0.62384,-0.637116 1.31312,-1.305743 1.651351,-1.532669 3.317553,-3.049702 5.057025,-4.482299 0.848367,-0.68558 1.781553,-1.266555 2.605671,-1.9831 0.143388,-0.124671 0.277138,-0.260011 0.415707,-0.390017 0.926221,-0.946865 1.878255,-1.868776 2.786465,-2.833026 0.680366,-0.796343 1.432204,-1.527544 2.200259,-2.238267 0.670102,-0.668019 1.378521,-1.29614 2.045353,-1.96723 0.346045,-0.322713 0.597238,-0.750886 0.965987,-1.050541 0.03575,-0.02905 0.08173,-0.04251 0.122603,-0.06377 -1.192903,0.507428 -2.385807,1.014856 -3.57871,1.522284 -0.870017,0.731934 -1.647851,1.566498 -2.469792,2.351066 -1.306629,1.317967 -2.695409,2.546853 -4.118579,3.736191 -0.767976,0.572878 -1.499817,1.191357 -2.232656,1.807813 -0.471988,0.389553 -0.963466,0.756798 -1.484913,1.077848 5.728071,-2.86998 3.448698,-2.055336 2.228353,-1.334605 0.04576,0.07213 0.153362,0.280998 0.276818,0.233028 0.109811,-0.04267 0.141548,-0.188403 0.214988,-0.28052 0.128965,-0.161763 0.255638,-0.325606 0.392165,-0.481038 0.454534,-0.517474 0.861276,-0.911486 1.351744,-1.407118 1.810681,-1.802283 3.86376,-3.326309 5.89763,-4.861661 1.386596,-1.027825 2.746797,-2.089994 4.041627,-3.231692 0.791953,-0.69672 1.481209,-1.499231 2.150624,-2.311487 0.356132,-0.41803 0.611586,-0.903836 0.959873,-1.326015 0.297697,-0.409219 0.626793,-0.790574 0.976619,-1.155411 0.644752,-0.625055 1.297014,-1.240385 1.925009,-1.882885 0.758059,-0.763154 1.554119,-1.485834 2.347229,-2.211861 0.67952,-0.628508 1.34311,-1.273798 2.00307,-1.922701 0.49825,-0.530271 0.91194,-1.131749 1.38247,-1.686774 0.34827,-0.484583 0.65624,-0.993529 0.94499,-1.514587 0.24675,-0.520857 0.55825,-1.004108 0.84131,-1.504626 0.45616,-0.791053 0.93199,-1.569571 1.40762,-2.348835 0,0 -3.39022,1.498624 -3.39022,1.498624 v 0 c -0.48748,0.790746 -0.96782,1.58572 -1.4539,2.377326 -0.30255,0.497267 -0.58683,1.003062 -0.85556,1.519483 -0.28381,0.502385 -0.59712,0.992031 -0.95559,1.444523 -0.44806,0.553862 -0.85563,1.143914 -1.37017,1.640382 -0.652612,0.643503 -1.309864,1.2825 -1.985609,1.901809 -0.788555,0.728609 -1.571529,1.462982 -2.329807,2.22334 -0.651613,0.649249 -1.339858,1.25953 -1.983053,1.916979 -0.35417,0.381594 -0.682416,0.785136 -0.991402,1.204252 -0.30543,0.431723 -0.572548,0.890926 -0.917447,1.294564 -0.637501,0.788446 -1.313216,1.549799 -2.080077,2.215967 -1.264568,1.10632 -2.585631,2.143531 -3.924747,3.157924 -2.023891,1.558935 -4.057497,3.114561 -5.88483,4.90676 -0.561424,0.55333 -0.950688,0.920202 -1.471593,1.492259 -0.158645,0.174224 -0.313363,0.352321 -0.459748,0.536966 -0.286028,0.360785 -0.456584,0.584234 -0.04696,0.951353 0.31765,-0.133779 -0.07137,0.03962 0.278653,-0.152832 1.357321,-0.746285 2.882878,-0.911904 4.008491,-2.278269 0.495761,-0.345253 0.975964,-0.711996 1.433927,-1.10634 0.704079,-0.594306 1.406173,-1.190707 2.125669,-1.766479 1.387236,-1.203093 2.729822,-2.454365 4.051486,-3.729131 0.593829,-0.556076 1.17644,-1.125507 1.782181,-1.668702 0.242615,-0.217564 0.49995,-0.418866 0.735449,-0.644113 0.06568,-0.06282 0.123092,-0.133767 0.184637,-0.20065 -1.169615,0.476973 -2.346465,0.936578 -3.508846,1.43092 -0.03142,0.01336 -0.03497,0.05895 -0.05656,0.08539 -0.05788,0.07088 -0.1209,0.137412 -0.181434,0.206042 -0.244684,0.277407 -0.489204,0.555283 -0.750729,0.817162 -0.668174,0.649942 -1.337832,1.298447 -2.012209,1.941928 -0.757822,0.713832 -1.490613,1.45182 -2.163179,2.247728 -0.913491,0.96243 -1.854573,1.900153 -2.816895,2.813582 -0.939117,0.810908 -1.953698,1.526203 -2.911011,2.315131 -1.704887,1.465263 -3.369533,2.976344 -5.026902,4.494957 -0.25507,0.241818 -0.51014,0.483635 -0.76521,0.725453 -0.214557,0.208675 -0.426895,0.419656 -0.643671,0.626024 -0.175956,0.167508 -0.754859,0.597679 -0.534441,0.495526 0.986851,-0.457358 1.905975,-1.048554 2.858963,-1.57283 0.01944,0.387242 -0.05952,0.279461 0.03557,0.399248 0.499421,-0.82612 1.189233,-1.520607 1.859329,-2.207236 1.093243,-1.028542 2.252319,-1.990704 3.559335,-2.739603 0.151509,-0.09043 0.303264,-0.180443 0.454526,-0.271283 1.655488,-0.994202 -2.075163,1.196607 -2.616489,1.498509 -0.05437,0.03032 0.114348,-0.07149 0.133332,-0.130783 0.02527,-0.07891 -0.05097,-0.257465 -0.07927,-0.334619 -0.0769,0.29126 -0.179614,0.576091 -0.342348,0.831518 -0.348018,0.560077 -0.790087,1.05218 -1.247972,1.524703 -0.62667,0.60962 -1.281918,1.191205 -2.008589,1.680745 -0.672743,0.445411 -1.354358,0.876086 -2.05226,1.281285 -0.473349,0.28406 -0.938564,0.57798 -1.403593,0.875384 -0.14946,0.09559 -0.604154,0.37195 -0.449581,0.284872 0.834565,-0.470147 3.972348,-2.273856 2.490184,-1.434164 -2.188866,1.269697 -3.044687,1.474124 -4.413943,2.869687 -0.430175,0.428947 -0.850633,0.869753 -1.229655,1.345029 -0.308641,0.383557 -0.629058,0.757323 -0.933183,1.144557 -0.451125,0.565379 -0.892553,1.139684 -1.284163,1.748519 0,0 3.483898,-1.558024 3.483898,-1.558024 z" /><path
     style="fill:#ff0000"
     id="path57"
     d="m 109.46525,52.548219 c 0.39199,-0.866146 0.89589,-1.674508 1.43887,-2.452718 0.53022,-0.783369 1.03476,-1.586518 1.62403,-2.327753 0.52427,-0.746774 1.10845,-1.447672 1.66104,-2.173393 0.6497,-0.851507 1.36799,-1.64779 2.03141,-2.487795 0.68055,-0.921998 1.34251,-1.858024 2.01529,-2.786027 0.54851,-0.816583 1.1655,-1.591156 1.66568,-2.439244 0.27567,-0.37711 0.34118,-0.813002 0.38003,-1.265185 0,0 -3.40892,1.689927 -3.40892,1.689927 v 0 c -0.0557,0.403703 -0.19342,0.763786 -0.42032,1.105023 -0.48965,0.810464 -1.01438,1.597872 -1.57385,2.362111 -0.68327,0.936093 -1.36429,1.874507 -2.07218,2.792082 -0.67014,0.826614 -1.35296,1.643072 -2.00733,2.48249 -0.57806,0.724119 -1.16577,1.44087 -1.70291,2.196441 -0.55138,0.759037 -1.05219,1.551899 -1.57742,2.328871 -0.54488,0.822253 -1.04154,1.672517 -1.52606,2.531388 0,0 3.47264,-1.556218 3.47264,-1.556218 z" /><path
     style="fill:#ff0000"
     id="path59"
     d="m 117.00841,42.686002 c -0.26517,0.187283 -0.57656,0.276992 -0.87079,0.401012 -0.21833,-0.104086 -0.20772,-0.58764 -0.20468,-0.789519 0.0705,-0.666108 0.374,-1.279995 0.62416,-1.893489 0.28034,-0.762829 0.53237,-1.533729 0.77092,-2.310479 0.22478,-0.704883 0.28334,-1.439382 0.36667,-2.169095 0.0981,-0.753247 0.16632,-1.507012 0.19844,-2.266051 0.0218,-0.902541 0.0284,-1.803736 0.086,-2.704796 0.0379,-0.446019 0.0432,-0.895686 0.14517,-1.333883 0.023,-0.09868 0.12003,-0.40949 0.1515,-0.512072 0.14134,-0.486123 0.20023,-0.988749 0.29199,-1.484918 0.11867,-0.56254 0.14243,-1.124343 0.044,-1.689935 -0.16049,-0.719985 -0.44254,-1.402726 -0.68915,-2.095145 -0.29051,-0.831692 -0.63275,-1.641766 -0.96253,-2.457854 -0.26667,-0.720131 -0.60323,-1.410282 -0.9729,-2.082243 -0.30502,-0.657237 -0.67996,-1.274848 -1.1008,-1.863359 -0.49892,-0.740873 -1.12345,-1.379921 -1.76523,-1.995896 -0.68909,-0.65678 -1.48023,-1.189493 -2.28004,-1.699897 -0.7953,-0.509098 -1.61793,-0.972544 -2.41663,-1.476 -0.73684,-0.46309 -1.48546,-0.90504 -2.24026,-1.338007 -0.6815,-0.400954 -1.36486,-0.799424 -2.03878,-1.2130449 C 103.56511,9.3906499 102.993,9.0580008 102.43489,8.700151 102.02772,8.4149283 101.61259,8.1423202 101.18614,7.8866839 100.66572,7.5635231 100.14078,7.247312 99.609193,6.9427996 98.910434,6.5345101 98.162982,6.2302759 97.409411,5.9410926 96.45126,5.5963531 95.492743,5.2543812 94.52012,4.9525016 93.560685,4.6388289 92.556169,4.5434445 91.556816,4.4543558 90.513182,4.3674905 89.465779,4.346238 88.419179,4.3277816 87.563836,4.3176897 86.708393,4.3138239 85.852988,4.312371 85.065575,4.316251 84.283645,4.4198924 83.518275,4.59988 82.677686,4.8359188 81.859996,5.1439364 81.059388,5.4904569 80.635101,5.6694128 80.22329,5.8744242 79.817006,6.0905285 c 0,0 -2.942234,2.3680581 -2.942234,2.3680581 v 0 c 0.416391,-0.2265912 0.823583,-0.4713495 1.262618,-0.6537263 0.787154,-0.3541343 1.584553,-0.6787809 2.412589,-0.9271806 0.73796,-0.2236625 1.505652,-0.3300837 2.275435,-0.365197 0.863078,-0.00313 1.726138,-0.010213 2.589231,-0.0068 1.04373,0.00454 2.08833,0.017201 3.129517,0.097166 0.979567,0.085878 1.968386,0.1613468 2.917386,0.4354381 0.964752,0.2934407 1.915329,0.6264242 2.861054,0.9761532 0.730552,0.283965 1.450254,0.5909128 2.136516,0.9713831 0.521083,0.311765 1.04254,0.6236274 1.548896,0.958732 0.426414,0.2520269 0.841718,0.5209569 1.25028,0.8007739 0.567693,0.352662 1.147136,0.685207 1.738926,0.996029 0.675,0.424436 1.37368,0.810572 2.0624,1.212116 0.74862,0.435228 1.49581,0.871083 2.23322,1.325169 0.79975,0.505145 1.63067,0.956775 2.42731,1.467079 0.78039,0.496983 1.55438,1.012113 2.2333,1.644876 0.63054,0.593005 1.22728,1.220324 1.71271,1.940826 0.40286,0.585947 0.75423,1.199679 1.06465,1.839635 0.36949,0.654087 0.70506,1.327156 0.97752,2.028031 0.33512,0.808283 0.66406,1.617302 0.9423,2.447659 0.23403,0.672952 0.4987,1.339586 0.62507,2.044225 0.0529,0.534644 0.004,1.062654 -0.1066,1.588344 -0.0846,0.489144 -0.17998,0.976322 -0.3105,1.455677 -0.15146,0.62302 -0.2122,1.25414 -0.21562,1.895581 -0.0408,0.900326 -0.0298,1.801864 -0.0807,2.701844 -0.0519,0.757324 -0.14653,1.508886 -0.23666,2.26236 -0.075,0.706693 -0.15024,1.415561 -0.3758,2.094307 -0.23929,0.768449 -0.4989,1.52996 -0.78734,2.28147 -0.27174,0.660195 -0.58109,1.328565 -0.60578,2.054041 0.0182,0.439563 0.087,0.879916 0.408,1.207782 0.053,0.0339 0.0997,0.08084 0.15914,0.101683 0.29808,0.104583 0.64319,-0.149777 0.90906,-0.240706 0,0 2.97554,-2.40735 2.97554,-2.40735 z" /><path
     style="fill:#ff0000"
     id="path61"
     d="M 94.729031,5.4522567 C 93.722496,5.3551175 92.712528,5.3145098 91.702123,5.2832025 90.479435,5.2505709 89.25686,5.2278684 88.034067,5.2611491 87.117006,5.2888141 86.212009,5.4549814 85.31142,5.618297 c -0.997472,0.1651435 -1.97136,0.4165448 -2.928826,0.738568 -1.026157,0.3674036 -1.979607,0.902387 -2.942499,1.4064014 -0.81105,0.4083389 -1.613123,0.8337685 -2.420833,1.2485961 -0.914221,0.4681101 -1.840945,0.9111743 -2.756616,1.3763335 -1.575634,0.84032 -0.681071,0.357454 -3.972584,2.270493 -0.383909,0.22313 -0.755706,0.494852 -1.095558,0.779827 -0.456829,0.442724 -0.940126,0.856734 -1.380755,1.315941 -0.366903,0.356525 -0.681356,0.754942 -0.910915,1.211877 0,0 3.464867,-1.549772 3.464867,-1.549772 v 0 c 0.251599,-0.407397 0.566692,-0.765237 0.911525,-1.097099 0.461729,-0.441088 0.931509,-0.876084 1.4225,-1.284303 0.247533,-0.180347 0.495821,-0.358822 0.754934,-0.522459 0.104007,-0.06568 0.422291,-0.252481 0.315459,-0.1915 -3.830988,2.186792 -3.636403,2.075965 -2.405651,1.39024 0.908684,-0.478686 1.836102,-0.920359 2.756363,-1.375791 0.804485,-0.420879 1.613954,-0.831469 2.420129,-1.249299 0.974615,-0.4937989 1.913413,-1.0669646 2.934153,-1.4643023 0.929057,-0.3427182 1.881679,-0.5995663 2.861127,-0.7529028 0.740897,-0.1613858 0.09412,-0.03061 0.8498,-0.1542809 0.620811,-0.101599 1.235198,-0.2517403 1.867164,-0.2726148 1.225662,-0.05696 2.451807,-0.055333 3.678316,-0.016947 0.963152,0.03285 1.936792,0.051993 2.884779,0.2400016 0,0 3.110732,-2.2130478 3.110732,-2.2130481 z" /><path
     style="fill:#ff0000"
     id="path63"
     d="m 74.54402,12.528371 c -0.599363,0.396494 -1.225507,0.751156 -1.831857,1.137812 -0.463345,0.336843 -0.223515,0.176124 -0.697444,0.468373 -0.106277,0.06554 -0.426781,0.259338 -0.318707,0.196809 5.14435,-2.976442 3.572682,-1.986558 2.409231,-1.451808 -0.112223,0.06155 -0.249321,0.03286 -0.149524,0.142441 0,0 -3.336444,1.899251 -3.336444,1.899251 v 0 c 0.153362,0.256378 0.1922,0.338892 0.512271,0.300738 0.222198,-0.08134 0.327322,-0.110501 0.541217,-0.231566 1.529267,-0.865573 3.073714,-1.671799 4.512113,-2.672393 0.638132,-0.395901 1.299066,-0.757839 1.90677,-1.200496 0,0 -3.547626,1.410839 -3.547626,1.410839 z" /><path
     style="fill:#ff0000"
     id="path65"
     d="m 74.445588,10.997503 c -0.621385,0.194307 -1.215902,0.465214 -1.780929,0.787933 -3.567584,2.037651 -2.575876,1.417014 -4.33257,2.539136 -1.014025,0.750587 -2.01924,1.517272 -2.944064,2.3767 -0.364979,0.406079 -0.997486,0.958846 -1.159674,1.500638 -0.02103,0.07025 -0.01599,0.145788 -0.02398,0.218682 0.215289,0.415589 0.415336,0.43978 0.827188,0.209363 2.40576,-1.345938 2.658801,-1.504247 4.174119,-2.422138 0,0 -3.426552,1.321159 -3.426552,1.321159 v 0 c -1.696803,0.999621 0.639226,-0.379093 2.176712,-1.244227 0.09718,-0.05469 -0.204449,0.103439 -0.276139,0.188855 -0.06976,0.08311 -0.05113,0.192801 -0.04324,0.286899 0.235305,-0.588644 0.750917,-1.017739 1.18008,-1.461695 0.915484,-0.825195 1.885476,-1.592653 2.903065,-2.288228 1.3927,-0.852077 1.118561,-0.67657 -1.911409,1.076608 -0.174615,0.101035 0.349167,-0.20238 0.527481,-0.296734 0.234962,-0.12433 0.564062,-0.280798 0.820702,-0.376907 0.08797,-0.03294 0.179281,-0.05615 0.268921,-0.08423 0,0 3.020293,-2.331816 3.020293,-2.331816 z" /><path
     style="fill:#ff0000"
     id="path67"
     d="m 74.785707,13.285404 c 0.22389,-0.599177 0.482107,-1.20342 0.780346,-1.770433 0.114279,-0.206784 0.251777,-0.401445 0.368197,-0.606684 0.02887,-0.05089 0.06164,-0.101374 0.07661,-0.157938 0.009,-0.03386 0.02526,-0.118443 -0.007,-0.104854 -1.209791,0.5092 -2.393112,1.079133 -3.589669,1.6187 0,0 3.56666,-1.412624 3.56666,-1.412624 v 0 c -1.144387,0.501571 -2.283389,1.015609 -3.43316,1.504711 -0.0125,0.0053 -0.0055,-0.04787 -0.01482,-0.03797 -0.03428,0.03649 -0.04868,0.08751 -0.07289,0.131336 -0.11354,0.205548 -0.227016,0.411303 -0.327322,0.62377 -0.263383,0.591962 -0.509778,1.19699 -0.842694,1.753763 0,0 3.495762,-1.541776 3.495762,-1.541776 z" /><path
     style="fill:#ff0000"
     id="path69"
     d="m 71.460858,13.541338 c -0.373933,0.222226 -0.726618,0.472096 -1.077312,0.728314 -0.04976,0.03914 -0.09682,0.08197 -0.149274,0.117424 -0.09067,0.06128 -0.317719,0.177154 -0.403069,0.225261 -0.08153,0.04595 -0.323303,0.188693 -0.242278,0.141862 0.998943,-0.577385 3.997464,-2.306592 2.996038,-1.733523 -1.151586,0.659 -2.297685,1.327544 -3.446527,1.991316 1.028225,-0.59525 2.056451,-1.1905 3.084677,-1.785751 -0.08156,0.03917 0.03566,0.153013 0.07189,0.122527 0.05278,-0.04441 0.05554,-0.126354 0.08659,-0.187954 0.05354,-0.106228 0.105416,-0.213615 0.167068,-0.315349 0.07574,-0.12498 0.163035,-0.242582 0.244552,-0.363874 0.346836,-0.523966 0.851786,-0.905596 1.386544,-1.223463 0.133423,-0.07931 0.543685,-0.299524 0.410419,-0.219952 -0.921614,0.55029 -1.850554,1.088216 -2.775831,1.632323 0.75895,-0.335583 1.576187,-0.478998 2.396371,-0.559262 0.389653,-0.02621 0.202202,-0.01597 0.562295,-0.03178 0,0 3.048975,-2.2371775 3.048975,-2.2371775 v 0 c -0.382463,0.019106 -0.183588,0.00749 -0.596575,0.035706 -0.847134,0.074661 -1.693329,0.1873835 -2.498024,0.4776785 -1.20248,0.671739 -2.408306,1.337523 -3.607441,2.015217 -0.698813,0.394936 -1.303475,0.927352 -1.731338,1.610538 -0.178794,0.300615 -0.513408,0.774969 -0.469283,1.15378 0.02589,0.222309 0.223273,0.537138 0.338954,0.478839 1.173326,-0.591305 2.277711,-1.310487 3.416567,-1.96573 -1.011161,0.58146 -4.047882,2.320167 -3.033481,1.744379 1.407952,-0.799173 2.937636,-1.566099 4.280902,-2.524311 0.356099,-0.2578 0.736183,-0.479505 1.095895,-0.732155 0,0 -3.557306,1.405118 -3.557306,1.405118 z" /><path
     style="fill:#ff0000"
     id="path71"
     d="m 76.675387,9.9448829 c -0.757703,0.3475841 -1.499955,0.7281271 -2.244341,1.1031351 -0.187412,0.101231 -0.377894,0.196973 -0.562235,0.303694 -1.235884,0.715494 -2.474852,1.426004 -3.698162,2.16279 -0.197768,0.119113 -0.377816,0.265543 -0.562872,0.403582 -0.536879,0.400476 -1.021919,0.851815 -1.523797,1.293962 -0.754845,0.701518 -1.493987,1.420259 -2.212715,2.158712 -0.699652,0.637592 -1.338821,1.32942 -1.920036,2.075572 -0.429215,0.569172 -0.869594,1.130297 -1.294744,1.702208 -0.04633,0.05103 -0.08294,0.112987 -0.138996,0.153083 -0.07074,0.05059 -0.309367,0.158616 -0.234628,0.114139 0.947743,-0.564002 1.905053,-1.111794 2.854366,-1.673147 0.161093,-0.09526 -0.327418,0.181413 -0.489601,0.274802 -3.831011,2.205974 -2.53346,1.366183 -4.316094,2.543786 -1.165859,0.766348 -2.202488,1.701467 -3.230946,2.637918 -0.251905,0.213304 -0.308099,0.280961 -0.578638,0.441447 -0.07588,0.04501 -0.312053,0.164517 -0.235951,0.11989 6.808952,-3.99285 3.971846,-2.044422 2.87075,-1.706254 0.0011,0.0072 -0.0018,0.02678 0.0033,0.0216 0.142085,-0.143408 -0.259867,0.113461 0.123271,-0.129681 0.170472,-0.108182 0.716432,-0.371306 0.544175,-0.26599 -0.903785,0.552565 -1.823129,1.079269 -2.734693,1.618903 1.142128,-0.470942 2.369896,-0.640264 3.586081,-0.795798 0.654714,-0.03604 1.283231,-0.202523 1.916387,-0.354732 1.017686,-0.755287 2.096184,-1.434875 3.053056,-2.265861 0.09803,-0.08513 -0.257151,-0.06356 -0.386287,-0.05007 -0.191247,0.01999 -0.375271,0.08695 -0.55737,0.148714 -0.736722,0.249895 -1.411642,0.626852 -2.088782,1.002458 -1.642711,0.961848 -2.79859,1.423288 -4.053554,2.44952 -0.05562,0.04548 -0.192315,0.08179 -0.159045,0.145475 0.09027,0.172774 0.258458,0.464518 0.43768,0.387847 1.392243,-0.595606 2.856216,-1.605836 4.185011,-2.506556 0.671896,-0.477082 1.350944,-0.943712 2.00497,-1.445415 0.348795,-0.26756 0.712199,-0.525482 0.970495,-0.885521 -0.260264,-0.431742 -0.287347,-0.481294 -0.699796,-0.2595 -0.06285,0.0338 -0.12405,0.07061 -0.186824,0.104551 -0.0456,0.02466 -0.112467,0.02625 -0.138255,0.07123 -0.01722,0.03003 0.02886,0.06292 0.04329,0.09438 0.03702,0.009 0.08751,0.05692 0.111047,0.02697 0.05309,-0.06756 0.04221,-0.166585 0.06399,-0.249701 0.02741,-0.10458 0.05535,-0.209021 0.08358,-0.313383 0.01485,-0.05491 0.151771,-0.529945 0.149076,-0.604972 -0.0035,-0.09712 -0.05509,-0.186399 -0.08263,-0.279599 -0.125824,-0.06893 -0.234056,-0.202808 -0.37747,-0.206805 -0.188173,-0.0052 -0.372067,0.08678 -0.534819,0.18138 -1.258537,0.7315 -2.505456,1.485292 -3.718122,2.290556 -0.234995,0.156048 -0.412718,0.384842 -0.611792,0.5847 -0.486615,0.488531 -0.635052,0.67488 -1.077072,1.18202 -0.122068,0.162909 -0.267978,0.310424 -0.366205,0.488725 -0.38067,0.690993 0.183439,0.874287 0.782652,0.740406 0.435105,-0.09722 1.388601,-0.585757 1.746855,-0.757311 0.312071,-0.166935 0.628575,-0.325836 0.936213,-0.500806 1.295725,-0.736947 2.584057,-1.486831 3.873494,-2.234726 0.236929,-0.137423 0.469402,-0.282408 0.705538,-0.42119 0.17317,-0.101774 0.695585,-0.402101 0.52234,-0.300455 -3.055746,1.792846 -2.095908,2.477982 -3.218163,1.51372 -0.07713,0.05331 -0.159982,0.09918 -0.231396,0.159944 -1.180793,1.004642 0.581154,-0.404187 -0.712795,0.649511 -0.118524,0.09652 -0.498028,0.35293 -0.365171,0.277348 3.028089,-1.722678 2.4079,-2.765929 3.016847,-1.680051 0.0585,-0.266371 0.01003,-0.01345 0.04857,-0.449133 0.03005,-0.33977 0.142636,-0.720104 -0.0706,-1.031416 -0.07811,-0.114038 -0.201638,-0.18912 -0.302457,-0.28368 -0.162526,-0.04021 -0.320156,-0.119173 -0.487577,-0.120644 -0.646937,-0.0057 -1.396369,0.420501 -1.937262,0.731845 -3.029769,1.743972 -2.600243,1.486326 -4.210969,2.470269 0.916752,-0.538896 1.833503,-1.077792 2.750255,-1.616688 -0.110251,0.03217 -0.216394,0.08591 -0.330752,0.09651 -0.109378,0.01014 -0.222724,-0.0029 -0.327624,-0.03549 C 60.377,21.301445 59.980522,20.889859 59.617377,20.582811 58.687279,19.734616 57.742121,18.906958 56.750881,18.13087 56.025572,17.623931 55.275485,17.152122 54.523511,16.685851 53.829777,16.268219 53.173826,15.795619 52.531766,15.30359 51.893448,14.813445 51.287943,14.282817 50.674061,13.762957 50.021856,13.1865 49.31932,12.671659 48.618515,12.156756 47.98221,11.678962 47.288323,11.28897 46.616343,10.865729 46.143125,10.582171 45.70959,10.237434 45.309298,9.8590304 44.960754,9.5562119 44.696655,9.1815876 44.41597,8.8196355 44.136714,8.4259856 43.851286,8.0445602 43.484492,7.7288072 43.063957,7.411414 42.566756,7.2282061 42.072363,7.0614345 41.446093,6.8324197 40.800355,6.6648128 40.164043,6.4677694 39.75296,6.3259569 39.33262,6.2201029 38.906537,6.1360884 37.98743,5.21147 38.616232,5.8127487 35.904422,8.3662299 c -0.10992,0.103502 0.29595,0.060108 0.444616,0.086437 0.282062,0.049954 0.564821,0.095906 0.847475,0.1423963 2.229835,0.366756 0.18244,0.018656 2.682839,0.450066 2.097982,0.4079217 4.242136,0.7219788 6.257373,1.4602678 0.399993,0.180937 0.659172,0.265168 0.749386,0.705031 0,0 3.360337,-1.8264191 3.360337,-1.8264191 v 0 C 50.061668,8.8087885 49.759686,8.6297993 49.188823,8.4312016 47.54833,7.9580267 45.845461,7.7116167 44.1711,7.3886586 43.670377,7.292077 43.16967,7.1954143 42.668955,7.0987922 41.787112,6.9084193 41.026944,6.7527149 40.15994,6.5369167 37.778281,5.9441191 39.789039,5.7734927 35.768282,8.3962933 c -0.01581,0.010312 0.0087,-0.036742 0.01298,-0.055113 0.430813,0.037029 0.855718,0.1133404 1.267777,0.2480771 0.630757,0.2006204 1.280721,0.340329 1.898105,0.5826522 0.448647,0.1700562 0.916802,0.3104708 1.32187,0.5747342 0.364683,0.2715882 0.629049,0.6411782 0.8884,1.0106532 0.287521,0.382355 0.565466,0.772875 0.928615,1.089751 0.420572,0.396475 0.871048,0.765368 1.373079,1.0551 0.675023,0.411475 1.376341,0.781528 2.014705,1.250516 0.698769,0.500835 1.383474,1.021475 2.02954,1.589496 0.618498,0.524148 1.230354,1.05654 1.865711,1.560416 0.657979,0.489352 1.314241,0.981217 2.010331,1.416371 0.75922,0.445884 1.501856,0.92021 2.251781,1.381437 1.005282,0.747718 1.969156,1.542473 2.864414,2.420982 0.420055,0.391321 1.091197,1.111268 1.684488,1.210427 1.481567,0.247621 3.355176,-3.308622 4.008967,-2.058008 1.34293,-0.837202 0.417487,-0.251509 -2.050802,1.14253 -0.208927,0.117998 0.410333,-0.249238 0.621466,-0.363241 0.448737,-0.2423 0.923021,-0.498927 1.442388,-0.526244 0.06249,0.03504 0.141975,0.04978 0.187478,0.105123 0.104775,0.127427 0.06447,0.390536 0.05532,0.518881 -0.02762,0.387507 -0.112667,0.763391 0.01894,1.14486 0.08271,0.08956 0.137596,0.320107 0.24813,0.268684 1.628826,-0.757764 2.956948,-1.454188 4.162449,-2.625071 0.123006,-0.119473 0.254514,-0.23236 0.359624,-0.367846 0.08831,-0.113829 0.144082,-0.249524 0.216123,-0.374286 -0.07238,-0.147656 -0.06487,-0.505028 -0.217151,-0.442968 -1.220109,0.497231 -2.300163,1.285676 -3.446102,1.935853 -0.375885,0.213267 -1.485485,0.883699 -1.108033,0.673216 0.736392,-0.410642 1.46834,-0.829357 2.195631,-1.255911 0.300466,-0.176222 -0.609979,0.336539 -0.914969,0.504808 -0.291831,0.143213 -0.583662,0.286426 -0.875493,0.429639 -0.230746,0.09917 -0.464902,0.19075 -0.692239,0.297503 -0.128678,0.06042 -0.257124,0.123739 -0.37477,0.203542 -0.03737,0.02535 -0.0894,0.151731 -0.08307,0.107019 0.0361,-0.254844 0.313368,-0.545218 0.437192,-0.710952 0.41845,-0.476699 0.580426,-0.682793 1.057063,-1.129715 0.21169,-0.198493 0.923078,-0.685905 0.656057,-0.572274 -5.148389,2.190902 -2.91798,1.850807 -2.186552,1.097955 0.05233,-0.05387 0.07056,-0.132596 0.105844,-0.198894 0.04077,0.185985 0.03461,0.08807 -0.03459,0.36944 -0.05077,0.206412 -0.250352,0.783874 -0.246991,0.96563 0.0024,0.128369 0.05627,0.25054 0.08441,0.37581 0.05971,0.055 0.10137,0.141711 0.179141,0.165 0.05674,0.01699 0.112251,-0.03817 0.166714,-0.06143 0.129804,-0.05545 0.472228,-0.167236 0.45578,-0.366588 -0.01003,-0.121565 -0.0774,-0.231353 -0.116097,-0.34703 -0.238936,0.272062 -0.534822,0.493908 -0.820403,0.712328 -0.659103,0.5041 -1.344811,0.971993 -2.033709,1.434001 -2.081014,1.329461 1.43365,-0.93085 2.176969,-1.198393 0.176369,-0.06348 0.04596,0.377036 0.119319,0.549534 0.01457,0.03426 0.05263,-0.053 0.08223,-0.07557 0.935675,-0.713333 1.940234,-1.158105 -2.217476,1.203915 0.47089,-0.276385 0.856958,-0.515985 1.350481,-0.752939 1.287512,-0.618171 0.05323,0.0089 1.083102,-0.424923 1.250824,-0.526939 0.738831,-4.516977 3.352443,-2.311091 -0.220732,0.150158 -0.462678,0.205128 -0.718165,0.279556 -0.401822,0.11706 -0.807031,0.196562 -1.225021,0.234813 -1.22499,0.180362 -2.460634,0.331422 -3.645185,0.709959 -1.220744,0.676955 -2.450164,1.338497 -3.662233,2.030867 -0.297956,0.170201 -0.558995,0.427841 -0.531226,0.796266 0.01363,0.18081 0.110507,0.273491 0.20983,0.413836 0.05351,0.02464 0.103314,0.05989 0.160528,0.07394 0.06151,0.0151 0.133574,0.0415 0.189626,0.01201 1.166844,-0.613846 2.306708,-1.277761 3.453385,-1.928501 0.271974,-0.154345 0.482858,-0.404706 0.717458,-0.604612 0.987178,-0.936521 2.027669,-1.820228 3.181715,-2.547383 1.384214,-0.858419 1.236747,-0.757645 -1.942678,1.093605 -0.149412,0.087 0.304062,-0.164745 0.453952,-0.250915 0.753202,-0.433011 3.031373,-1.236235 3.906553,-2.440239 0.408657,-0.5588 0.811668,-1.121884 1.242407,-1.66416 0.593296,-0.725445 1.246851,-1.391427 1.926979,-2.035845 0.716899,-0.715226 1.425334,-1.439438 2.178128,-2.117528 0.492171,-0.436768 0.980616,-0.865373 1.518786,-1.245979 0.189509,-0.134025 0.781954,-0.499006 0.577627,-0.388887 -0.683938,0.368601 -3.850797,2.189062 -2.023701,1.156447 0.70126,-0.352725 1.406203,-0.699143 2.117146,-1.031483 0,0 3.004575,-2.3745617 3.004575,-2.3745617 z" /></svg>
